<mxfile host="app.diagrams.net" modified="2023-02-19T01:47:17.951Z" agent="5.0 (Windows NT 10.0; Win64; x64) AppleWebKit/537.36 (KHTML, like Gecko) Chrome/109.0.0.0 Safari/537.36" etag="UZeuFAGAACZk0qWpOw3W" version="20.8.20" type="github" pages="3">
  <diagram name="Docker" id="zrHI4tY29zFRAnnVJqiF">
    <mxGraphModel dx="2688" dy="1013" grid="1" gridSize="10" guides="1" tooltips="1" connect="1" arrows="1" fold="1" page="1" pageScale="1" pageWidth="850" pageHeight="1100" math="0" shadow="0">
      <root>
        <mxCell id="0" />
        <mxCell id="1" parent="0" />
        <mxCell id="Ih6cFIc23gQM0aYxzpYZ-1" value="billie-goat" style="rounded=0;whiteSpace=wrap;html=1;verticalAlign=top;" parent="1" vertex="1">
          <mxGeometry x="350" y="240" width="370" height="900" as="geometry" />
        </mxCell>
        <mxCell id="Ih6cFIc23gQM0aYxzpYZ-3" value="LAPTOP-RGPQB3DA" style="rounded=0;whiteSpace=wrap;html=1;verticalAlign=top;" parent="1" vertex="1">
          <mxGeometry x="-110" y="280" width="180" height="200" as="geometry" />
        </mxCell>
        <mxCell id="Ih6cFIc23gQM0aYxzpYZ-4" value="Unifi Dream Machine" style="rounded=0;whiteSpace=wrap;html=1;verticalAlign=top;" parent="1" vertex="1">
          <mxGeometry x="170" y="27" width="350" height="130" as="geometry" />
        </mxCell>
        <mxCell id="Ih6cFIc23gQM0aYxzpYZ-7" value="DHCP" style="rounded=0;whiteSpace=wrap;html=1;" parent="1" vertex="1">
          <mxGeometry x="170" y="57" width="120" height="60" as="geometry" />
        </mxCell>
        <mxCell id="Ih6cFIc23gQM0aYxzpYZ-8" value="Firewall" style="rounded=0;whiteSpace=wrap;html=1;" parent="1" vertex="1">
          <mxGeometry x="390" y="57" width="120" height="60" as="geometry" />
        </mxCell>
        <mxCell id="Ih6cFIc23gQM0aYxzpYZ-9" value="67" style="rounded=0;whiteSpace=wrap;html=1;" parent="1" vertex="1">
          <mxGeometry x="110" y="87" width="60" height="30" as="geometry" />
        </mxCell>
        <mxCell id="Ih6cFIc23gQM0aYxzpYZ-10" value="Port" style="rounded=0;whiteSpace=wrap;html=1;" parent="1" vertex="1">
          <mxGeometry x="110" y="57" width="60" height="30" as="geometry" />
        </mxCell>
        <mxCell id="Ih6cFIc23gQM0aYxzpYZ-12" value="ssh" style="rounded=0;whiteSpace=wrap;html=1;" parent="1" vertex="1">
          <mxGeometry x="600" y="1050" width="120" height="60" as="geometry" />
        </mxCell>
        <mxCell id="Ih6cFIc23gQM0aYxzpYZ-13" value="22" style="rounded=0;whiteSpace=wrap;html=1;" parent="1" vertex="1">
          <mxGeometry x="720" y="1080" width="60" height="30" as="geometry" />
        </mxCell>
        <mxCell id="Ih6cFIc23gQM0aYxzpYZ-14" value="Port" style="rounded=0;whiteSpace=wrap;html=1;" parent="1" vertex="1">
          <mxGeometry x="720" y="1050" width="60" height="30" as="geometry" />
        </mxCell>
        <mxCell id="Ih6cFIc23gQM0aYxzpYZ-15" value="Docker" style="rounded=0;whiteSpace=wrap;html=1;verticalAlign=top;" parent="1" vertex="1">
          <mxGeometry x="370" y="280" width="350" height="740" as="geometry" />
        </mxCell>
        <mxCell id="Ih6cFIc23gQM0aYxzpYZ-16" value="" style="shape=image;html=1;verticalAlign=top;verticalLabelPosition=bottom;labelBackgroundColor=#ffffff;imageAspect=0;aspect=fixed;image=https://cdn1.iconfinder.com/data/icons/unicons-line-vol-3/24/docker-128.png" parent="1" vertex="1">
          <mxGeometry x="692.5" y="280" width="27.5" height="27.5" as="geometry" />
        </mxCell>
        <mxCell id="Ih6cFIc23gQM0aYxzpYZ-35" value="Volumes" style="rounded=0;whiteSpace=wrap;html=1;verticalAlign=top;" parent="1" vertex="1">
          <mxGeometry x="390" y="310" width="170" height="660" as="geometry" />
        </mxCell>
        <mxCell id="Ih6cFIc23gQM0aYxzpYZ-18" value="Portainer" style="rounded=0;whiteSpace=wrap;html=1;" parent="1" vertex="1">
          <mxGeometry x="600" y="320" width="120" height="60" as="geometry" />
        </mxCell>
        <mxCell id="Ih6cFIc23gQM0aYxzpYZ-20" value="8000" style="rounded=0;whiteSpace=wrap;html=1;" parent="1" vertex="1">
          <mxGeometry x="720" y="350" width="60" height="30" as="geometry" />
        </mxCell>
        <mxCell id="Ih6cFIc23gQM0aYxzpYZ-21" value="Port" style="rounded=0;whiteSpace=wrap;html=1;" parent="1" vertex="1">
          <mxGeometry x="720" y="320" width="120" height="30" as="geometry" />
        </mxCell>
        <mxCell id="Ih6cFIc23gQM0aYxzpYZ-47" style="edgeStyle=orthogonalEdgeStyle;rounded=0;orthogonalLoop=1;jettySize=auto;html=1;entryX=1;entryY=0.5;entryDx=0;entryDy=0;" parent="1" source="Ih6cFIc23gQM0aYxzpYZ-22" target="Ih6cFIc23gQM0aYxzpYZ-40" edge="1">
          <mxGeometry relative="1" as="geometry" />
        </mxCell>
        <mxCell id="Ih6cFIc23gQM0aYxzpYZ-22" value="Heimdall" style="rounded=0;whiteSpace=wrap;html=1;" parent="1" vertex="1">
          <mxGeometry x="600" y="400" width="120" height="60" as="geometry" />
        </mxCell>
        <mxCell id="Ih6cFIc23gQM0aYxzpYZ-23" value="3080" style="rounded=0;whiteSpace=wrap;html=1;" parent="1" vertex="1">
          <mxGeometry x="720" y="430" width="60" height="30" as="geometry" />
        </mxCell>
        <mxCell id="Ih6cFIc23gQM0aYxzpYZ-24" value="Port" style="rounded=0;whiteSpace=wrap;html=1;" parent="1" vertex="1">
          <mxGeometry x="720" y="400" width="120" height="30" as="geometry" />
        </mxCell>
        <mxCell id="Ih6cFIc23gQM0aYxzpYZ-68" style="edgeStyle=orthogonalEdgeStyle;rounded=0;orthogonalLoop=1;jettySize=auto;html=1;exitX=0;exitY=0.5;exitDx=0;exitDy=0;entryX=1;entryY=0.5;entryDx=0;entryDy=0;" parent="1" source="Ih6cFIc23gQM0aYxzpYZ-25" target="Ih6cFIc23gQM0aYxzpYZ-42" edge="1">
          <mxGeometry relative="1" as="geometry" />
        </mxCell>
        <mxCell id="Ih6cFIc23gQM0aYxzpYZ-69" style="edgeStyle=orthogonalEdgeStyle;rounded=0;orthogonalLoop=1;jettySize=auto;html=1;entryX=1;entryY=0.5;entryDx=0;entryDy=0;" parent="1" source="Ih6cFIc23gQM0aYxzpYZ-25" target="Ih6cFIc23gQM0aYxzpYZ-41" edge="1">
          <mxGeometry relative="1" as="geometry" />
        </mxCell>
        <mxCell id="Ih6cFIc23gQM0aYxzpYZ-70" style="edgeStyle=orthogonalEdgeStyle;rounded=0;orthogonalLoop=1;jettySize=auto;html=1;entryX=1;entryY=0.5;entryDx=0;entryDy=0;" parent="1" source="Ih6cFIc23gQM0aYxzpYZ-25" target="Ih6cFIc23gQM0aYxzpYZ-67" edge="1">
          <mxGeometry relative="1" as="geometry" />
        </mxCell>
        <mxCell id="Ih6cFIc23gQM0aYxzpYZ-25" value="Pihole" style="rounded=0;whiteSpace=wrap;html=1;" parent="1" vertex="1">
          <mxGeometry x="600" y="490" width="120" height="60" as="geometry" />
        </mxCell>
        <mxCell id="Ih6cFIc23gQM0aYxzpYZ-26" value="53" style="rounded=0;whiteSpace=wrap;html=1;" parent="1" vertex="1">
          <mxGeometry x="720" y="520" width="60" height="30" as="geometry" />
        </mxCell>
        <mxCell id="Ih6cFIc23gQM0aYxzpYZ-27" value="Port" style="rounded=0;whiteSpace=wrap;html=1;" parent="1" vertex="1">
          <mxGeometry x="720" y="490" width="180" height="30" as="geometry" />
        </mxCell>
        <mxCell id="Ih6cFIc23gQM0aYxzpYZ-28" value="IPV4 Address" style="rounded=0;whiteSpace=wrap;html=1;" parent="1" vertex="1">
          <mxGeometry x="170" y="157" width="230" height="30" as="geometry" />
        </mxCell>
        <mxCell id="Ih6cFIc23gQM0aYxzpYZ-29" value="192.168.0.1" style="rounded=0;whiteSpace=wrap;html=1;" parent="1" vertex="1">
          <mxGeometry x="400" y="157" width="120" height="30" as="geometry" />
        </mxCell>
        <mxCell id="Ih6cFIc23gQM0aYxzpYZ-30" value="IPV4 Address" style="rounded=0;whiteSpace=wrap;html=1;" parent="1" vertex="1">
          <mxGeometry x="350" y="1140" width="250" height="30" as="geometry" />
        </mxCell>
        <mxCell id="Ih6cFIc23gQM0aYxzpYZ-31" value="192.168.0.2" style="rounded=0;whiteSpace=wrap;html=1;" parent="1" vertex="1">
          <mxGeometry x="600" y="1140" width="120" height="30" as="geometry" />
        </mxCell>
        <mxCell id="Ih6cFIc23gQM0aYxzpYZ-77" style="edgeStyle=orthogonalEdgeStyle;rounded=0;orthogonalLoop=1;jettySize=auto;html=1;" parent="1" source="Ih6cFIc23gQM0aYxzpYZ-32" target="Ih6cFIc23gQM0aYxzpYZ-73" edge="1">
          <mxGeometry relative="1" as="geometry" />
        </mxCell>
        <mxCell id="Ih6cFIc23gQM0aYxzpYZ-78" style="edgeStyle=orthogonalEdgeStyle;rounded=0;orthogonalLoop=1;jettySize=auto;html=1;" parent="1" source="Ih6cFIc23gQM0aYxzpYZ-32" target="Ih6cFIc23gQM0aYxzpYZ-74" edge="1">
          <mxGeometry relative="1" as="geometry" />
        </mxCell>
        <mxCell id="Ih6cFIc23gQM0aYxzpYZ-79" style="edgeStyle=orthogonalEdgeStyle;rounded=0;orthogonalLoop=1;jettySize=auto;html=1;" parent="1" source="Ih6cFIc23gQM0aYxzpYZ-32" target="Ih6cFIc23gQM0aYxzpYZ-75" edge="1">
          <mxGeometry relative="1" as="geometry" />
        </mxCell>
        <mxCell id="Ih6cFIc23gQM0aYxzpYZ-80" style="edgeStyle=orthogonalEdgeStyle;rounded=0;orthogonalLoop=1;jettySize=auto;html=1;" parent="1" source="Ih6cFIc23gQM0aYxzpYZ-32" target="Ih6cFIc23gQM0aYxzpYZ-76" edge="1">
          <mxGeometry relative="1" as="geometry" />
        </mxCell>
        <mxCell id="Ih6cFIc23gQM0aYxzpYZ-32" value="Plex" style="rounded=0;whiteSpace=wrap;html=1;" parent="1" vertex="1">
          <mxGeometry x="600" y="615" width="120" height="60" as="geometry" />
        </mxCell>
        <mxCell id="Ih6cFIc23gQM0aYxzpYZ-33" value="32400" style="rounded=0;whiteSpace=wrap;html=1;" parent="1" vertex="1">
          <mxGeometry x="720" y="645" width="60" height="30" as="geometry" />
        </mxCell>
        <mxCell id="Ih6cFIc23gQM0aYxzpYZ-34" value="Port" style="rounded=0;whiteSpace=wrap;html=1;" parent="1" vertex="1">
          <mxGeometry x="720" y="615" width="240" height="30" as="geometry" />
        </mxCell>
        <mxCell id="Ih6cFIc23gQM0aYxzpYZ-36" value="portainer_data" style="rounded=0;whiteSpace=wrap;html=1;" parent="1" vertex="1">
          <mxGeometry x="405" y="335" width="100" height="30" as="geometry" />
        </mxCell>
        <mxCell id="Ih6cFIc23gQM0aYxzpYZ-38" style="edgeStyle=orthogonalEdgeStyle;rounded=0;orthogonalLoop=1;jettySize=auto;html=1;exitX=0;exitY=0.5;exitDx=0;exitDy=0;" parent="1" source="Ih6cFIc23gQM0aYxzpYZ-18" target="Ih6cFIc23gQM0aYxzpYZ-36" edge="1">
          <mxGeometry relative="1" as="geometry" />
        </mxCell>
        <mxCell id="Ih6cFIc23gQM0aYxzpYZ-39" value="step" style="rounded=0;whiteSpace=wrap;html=1;" parent="1" vertex="1">
          <mxGeometry x="405" y="725" width="100" height="30" as="geometry" />
        </mxCell>
        <mxCell id="Ih6cFIc23gQM0aYxzpYZ-40" value="heimdall_config" style="rounded=0;whiteSpace=wrap;html=1;" parent="1" vertex="1">
          <mxGeometry x="405" y="415" width="100" height="30" as="geometry" />
        </mxCell>
        <mxCell id="Ih6cFIc23gQM0aYxzpYZ-41" value="etc_pihole" style="rounded=0;whiteSpace=wrap;html=1;" parent="1" vertex="1">
          <mxGeometry x="405" y="475" width="100" height="30" as="geometry" />
        </mxCell>
        <mxCell id="Ih6cFIc23gQM0aYxzpYZ-42" value="etc_dnsmasq_d" style="rounded=0;whiteSpace=wrap;html=1;" parent="1" vertex="1">
          <mxGeometry x="405" y="505" width="100" height="30" as="geometry" />
        </mxCell>
        <mxCell id="Ih6cFIc23gQM0aYxzpYZ-46" value="3443" style="rounded=0;whiteSpace=wrap;html=1;" parent="1" vertex="1">
          <mxGeometry x="780" y="430" width="60" height="30" as="geometry" />
        </mxCell>
        <mxCell id="Ih6cFIc23gQM0aYxzpYZ-51" value="9433" style="rounded=0;whiteSpace=wrap;html=1;" parent="1" vertex="1">
          <mxGeometry x="780" y="350" width="60" height="30" as="geometry" />
        </mxCell>
        <mxCell id="Ih6cFIc23gQM0aYxzpYZ-53" value="2080" style="rounded=0;whiteSpace=wrap;html=1;" parent="1" vertex="1">
          <mxGeometry x="780" y="520" width="60" height="30" as="geometry" />
        </mxCell>
        <mxCell id="Ih6cFIc23gQM0aYxzpYZ-54" value="ghost" style="rounded=0;whiteSpace=wrap;html=1;verticalAlign=top;" parent="1" vertex="1">
          <mxGeometry x="590" y="810" width="130" height="190" as="geometry" />
        </mxCell>
        <mxCell id="Ih6cFIc23gQM0aYxzpYZ-44" value="3306" style="rounded=0;whiteSpace=wrap;html=1;" parent="1" vertex="1">
          <mxGeometry x="720" y="870" width="60" height="30" as="geometry" />
        </mxCell>
        <mxCell id="Ih6cFIc23gQM0aYxzpYZ-82" style="edgeStyle=orthogonalEdgeStyle;rounded=0;orthogonalLoop=1;jettySize=auto;html=1;entryX=1;entryY=0.5;entryDx=0;entryDy=0;" parent="1" source="Ih6cFIc23gQM0aYxzpYZ-43" target="Ih6cFIc23gQM0aYxzpYZ-81" edge="1">
          <mxGeometry relative="1" as="geometry" />
        </mxCell>
        <mxCell id="Ih6cFIc23gQM0aYxzpYZ-43" value="db" style="rounded=0;whiteSpace=wrap;html=1;" parent="1" vertex="1">
          <mxGeometry x="600" y="840" width="120" height="60" as="geometry" />
        </mxCell>
        <mxCell id="Ih6cFIc23gQM0aYxzpYZ-45" value="Port" style="rounded=0;whiteSpace=wrap;html=1;" parent="1" vertex="1">
          <mxGeometry x="720" y="840" width="60" height="30" as="geometry" />
        </mxCell>
        <mxCell id="Ih6cFIc23gQM0aYxzpYZ-83" value="" style="edgeStyle=orthogonalEdgeStyle;rounded=0;orthogonalLoop=1;jettySize=auto;html=1;" parent="1" source="Ih6cFIc23gQM0aYxzpYZ-55" target="Ih6cFIc23gQM0aYxzpYZ-43" edge="1">
          <mxGeometry relative="1" as="geometry" />
        </mxCell>
        <mxCell id="Ih6cFIc23gQM0aYxzpYZ-55" value="ghost" style="rounded=0;whiteSpace=wrap;html=1;" parent="1" vertex="1">
          <mxGeometry x="600" y="920" width="120" height="60" as="geometry" />
        </mxCell>
        <mxCell id="Ih6cFIc23gQM0aYxzpYZ-56" value="Port" style="rounded=0;whiteSpace=wrap;html=1;" parent="1" vertex="1">
          <mxGeometry x="720" y="920" width="60" height="30" as="geometry" />
        </mxCell>
        <mxCell id="Ih6cFIc23gQM0aYxzpYZ-57" value="2368" style="rounded=0;whiteSpace=wrap;html=1;" parent="1" vertex="1">
          <mxGeometry x="720" y="950" width="60" height="30" as="geometry" />
        </mxCell>
        <mxCell id="Ih6cFIc23gQM0aYxzpYZ-71" style="edgeStyle=orthogonalEdgeStyle;rounded=0;orthogonalLoop=1;jettySize=auto;html=1;exitX=0;exitY=0.5;exitDx=0;exitDy=0;" parent="1" source="Ih6cFIc23gQM0aYxzpYZ-59" target="Ih6cFIc23gQM0aYxzpYZ-39" edge="1">
          <mxGeometry relative="1" as="geometry" />
        </mxCell>
        <mxCell id="Ih6cFIc23gQM0aYxzpYZ-59" value="smallstep" style="rounded=0;whiteSpace=wrap;html=1;" parent="1" vertex="1">
          <mxGeometry x="600" y="710" width="120" height="60" as="geometry" />
        </mxCell>
        <mxCell id="Ih6cFIc23gQM0aYxzpYZ-60" value="Port" style="rounded=0;whiteSpace=wrap;html=1;" parent="1" vertex="1">
          <mxGeometry x="720" y="710" width="60" height="30" as="geometry" />
        </mxCell>
        <mxCell id="Ih6cFIc23gQM0aYxzpYZ-61" value="4443" style="rounded=0;whiteSpace=wrap;html=1;" parent="1" vertex="1">
          <mxGeometry x="720" y="740" width="60" height="30" as="geometry" />
        </mxCell>
        <mxCell id="Ih6cFIc23gQM0aYxzpYZ-63" value="32401" style="rounded=0;whiteSpace=wrap;html=1;" parent="1" vertex="1">
          <mxGeometry x="780" y="645" width="60" height="30" as="geometry" />
        </mxCell>
        <mxCell id="Ih6cFIc23gQM0aYxzpYZ-64" value="32600" style="rounded=0;whiteSpace=wrap;html=1;" parent="1" vertex="1">
          <mxGeometry x="840" y="645" width="60" height="30" as="geometry" />
        </mxCell>
        <mxCell id="Ih6cFIc23gQM0aYxzpYZ-65" value="44329" style="rounded=0;whiteSpace=wrap;html=1;" parent="1" vertex="1">
          <mxGeometry x="900" y="645" width="60" height="30" as="geometry" />
        </mxCell>
        <mxCell id="Ih6cFIc23gQM0aYxzpYZ-66" value="2443&lt;span style=&quot;color: rgb(51, 51, 51); font-family: Inter; font-size: 13px; text-align: start; background-color: rgb(255, 255, 255);&quot;&gt;&lt;/span&gt;" style="rounded=0;whiteSpace=wrap;html=1;" parent="1" vertex="1">
          <mxGeometry x="840" y="520" width="60" height="30" as="geometry" />
        </mxCell>
        <mxCell id="Ih6cFIc23gQM0aYxzpYZ-67" value="etc_lighttpd" style="rounded=0;whiteSpace=wrap;html=1;" parent="1" vertex="1">
          <mxGeometry x="405" y="535" width="100" height="30" as="geometry" />
        </mxCell>
        <mxCell id="Ih6cFIc23gQM0aYxzpYZ-73" value="plex_music" style="rounded=0;whiteSpace=wrap;html=1;" parent="1" vertex="1">
          <mxGeometry x="405" y="585" width="100" height="30" as="geometry" />
        </mxCell>
        <mxCell id="Ih6cFIc23gQM0aYxzpYZ-74" value="plex_tv" style="rounded=0;whiteSpace=wrap;html=1;" parent="1" vertex="1">
          <mxGeometry x="405" y="615" width="100" height="30" as="geometry" />
        </mxCell>
        <mxCell id="Ih6cFIc23gQM0aYxzpYZ-75" value="plex_config" style="rounded=0;whiteSpace=wrap;html=1;" parent="1" vertex="1">
          <mxGeometry x="405" y="645" width="100" height="30" as="geometry" />
        </mxCell>
        <mxCell id="Ih6cFIc23gQM0aYxzpYZ-76" value="plex_movies" style="rounded=0;whiteSpace=wrap;html=1;" parent="1" vertex="1">
          <mxGeometry x="405" y="675" width="100" height="30" as="geometry" />
        </mxCell>
        <mxCell id="Ih6cFIc23gQM0aYxzpYZ-81" value="ghost_mysql" style="rounded=0;whiteSpace=wrap;html=1;" parent="1" vertex="1">
          <mxGeometry x="400" y="855" width="100" height="30" as="geometry" />
        </mxCell>
        <mxCell id="Ih6cFIc23gQM0aYxzpYZ-84" value="step-cli" style="rounded=0;whiteSpace=wrap;html=1;" parent="1" vertex="1">
          <mxGeometry x="370" y="1050" width="120" height="60" as="geometry" />
        </mxCell>
        <mxCell id="Q6FN5MaPpeWdjj-0kdv2-4" style="edgeStyle=orthogonalEdgeStyle;rounded=0;orthogonalLoop=1;jettySize=auto;html=1;entryX=1;entryY=0.5;entryDx=0;entryDy=0;" edge="1" parent="1" source="Ih6cFIc23gQM0aYxzpYZ-85" target="Ih6cFIc23gQM0aYxzpYZ-61">
          <mxGeometry relative="1" as="geometry">
            <Array as="points">
              <mxPoint x="120" y="350" />
              <mxPoint x="120" y="210" />
              <mxPoint x="990" y="210" />
              <mxPoint x="990" y="755" />
            </Array>
          </mxGeometry>
        </mxCell>
        <mxCell id="Ih6cFIc23gQM0aYxzpYZ-85" value="step-cli" style="rounded=0;whiteSpace=wrap;html=1;" parent="1" vertex="1">
          <mxGeometry x="-80" y="320" width="120" height="60" as="geometry" />
        </mxCell>
        <mxCell id="Q6FN5MaPpeWdjj-0kdv2-2" style="edgeStyle=orthogonalEdgeStyle;rounded=0;orthogonalLoop=1;jettySize=auto;html=1;entryX=1;entryY=0.5;entryDx=0;entryDy=0;" edge="1" parent="1" source="Ih6cFIc23gQM0aYxzpYZ-86" target="Fb_8nUKbaXZVIsvgUi4C-1">
          <mxGeometry relative="1" as="geometry" />
        </mxCell>
        <mxCell id="Q6FN5MaPpeWdjj-0kdv2-3" style="edgeStyle=orthogonalEdgeStyle;rounded=0;orthogonalLoop=1;jettySize=auto;html=1;entryX=1;entryY=0.5;entryDx=0;entryDy=0;" edge="1" parent="1" source="Ih6cFIc23gQM0aYxzpYZ-86" target="Ih6cFIc23gQM0aYxzpYZ-13">
          <mxGeometry relative="1" as="geometry">
            <Array as="points">
              <mxPoint x="120" y="426" />
              <mxPoint x="120" y="1200" />
              <mxPoint x="800" y="1200" />
              <mxPoint x="800" y="1095" />
            </Array>
          </mxGeometry>
        </mxCell>
        <mxCell id="Ih6cFIc23gQM0aYxzpYZ-86" value="ssh" style="rounded=0;whiteSpace=wrap;html=1;" parent="1" vertex="1">
          <mxGeometry x="-80" y="396.25" width="120" height="60" as="geometry" />
        </mxCell>
        <mxCell id="Ih6cFIc23gQM0aYxzpYZ-87" value="IPV4 Address" style="rounded=0;whiteSpace=wrap;html=1;" parent="1" vertex="1">
          <mxGeometry x="-110" y="480" width="100" height="30" as="geometry" />
        </mxCell>
        <mxCell id="Ih6cFIc23gQM0aYxzpYZ-88" value="&amp;lt;dynamic&amp;gt;" style="rounded=0;whiteSpace=wrap;html=1;" parent="1" vertex="1">
          <mxGeometry x="-10" y="480" width="80" height="30" as="geometry" />
        </mxCell>
        <mxCell id="Fb_8nUKbaXZVIsvgUi4C-1" value="id_rsa.pub" style="rounded=0;whiteSpace=wrap;html=1;" parent="1" vertex="1">
          <mxGeometry x="-330" y="396" width="120" height="60" as="geometry" />
        </mxCell>
        <mxCell id="Q6FN5MaPpeWdjj-0kdv2-10" style="edgeStyle=orthogonalEdgeStyle;rounded=0;orthogonalLoop=1;jettySize=auto;html=1;entryX=0.5;entryY=1;entryDx=0;entryDy=0;" edge="1" parent="1" source="Q6FN5MaPpeWdjj-0kdv2-1" target="Ih6cFIc23gQM0aYxzpYZ-53">
          <mxGeometry relative="1" as="geometry" />
        </mxCell>
        <mxCell id="Q6FN5MaPpeWdjj-0kdv2-11" style="edgeStyle=orthogonalEdgeStyle;rounded=0;orthogonalLoop=1;jettySize=auto;html=1;entryX=0.5;entryY=1;entryDx=0;entryDy=0;" edge="1" parent="1" source="Q6FN5MaPpeWdjj-0kdv2-1" target="Ih6cFIc23gQM0aYxzpYZ-33">
          <mxGeometry relative="1" as="geometry">
            <mxPoint x="840" y="690" as="targetPoint" />
            <Array as="points">
              <mxPoint x="1020" y="486" />
              <mxPoint x="1020" y="695" />
              <mxPoint x="750" y="695" />
            </Array>
          </mxGeometry>
        </mxCell>
        <mxCell id="Q6FN5MaPpeWdjj-0kdv2-1" value="nginx" style="rounded=0;whiteSpace=wrap;html=1;" vertex="1" parent="1">
          <mxGeometry x="1080" y="456" width="120" height="60" as="geometry" />
        </mxCell>
        <mxCell id="Q6FN5MaPpeWdjj-0kdv2-6" value="Port" style="rounded=0;whiteSpace=wrap;html=1;" vertex="1" parent="1">
          <mxGeometry x="1200" y="456.25" width="120" height="30" as="geometry" />
        </mxCell>
        <mxCell id="Q6FN5MaPpeWdjj-0kdv2-7" value="80" style="rounded=0;whiteSpace=wrap;html=1;" vertex="1" parent="1">
          <mxGeometry x="1200" y="486.25" width="60" height="30" as="geometry" />
        </mxCell>
        <mxCell id="Q6FN5MaPpeWdjj-0kdv2-8" value="433" style="rounded=0;whiteSpace=wrap;html=1;" vertex="1" parent="1">
          <mxGeometry x="1260" y="486.25" width="60" height="30" as="geometry" />
        </mxCell>
      </root>
    </mxGraphModel>
  </diagram>
  <diagram id="jQS67dt9k6_XntKHch0n" name="Docker with NGINX">
    <mxGraphModel dx="3253" dy="1325" grid="1" gridSize="10" guides="1" tooltips="1" connect="1" arrows="1" fold="1" page="1" pageScale="1" pageWidth="850" pageHeight="1100" math="0" shadow="0">
      <root>
        <mxCell id="0" />
        <mxCell id="1" parent="0" />
        <mxCell id="_15MaiO5bEoczQWwSuel-1" value="billie-goat" style="rounded=0;whiteSpace=wrap;html=1;verticalAlign=top;" vertex="1" parent="1">
          <mxGeometry x="350" y="240" width="370" height="900" as="geometry" />
        </mxCell>
        <mxCell id="_15MaiO5bEoczQWwSuel-2" value="LAPTOP-RGPQB3DA" style="rounded=0;whiteSpace=wrap;html=1;verticalAlign=top;" vertex="1" parent="1">
          <mxGeometry x="-110" y="280" width="180" height="200" as="geometry" />
        </mxCell>
        <mxCell id="_15MaiO5bEoczQWwSuel-3" value="Unifi Dream Machine" style="rounded=0;whiteSpace=wrap;html=1;verticalAlign=top;" vertex="1" parent="1">
          <mxGeometry x="170" y="27" width="350" height="130" as="geometry" />
        </mxCell>
        <mxCell id="_15MaiO5bEoczQWwSuel-4" value="DHCP" style="rounded=0;whiteSpace=wrap;html=1;" vertex="1" parent="1">
          <mxGeometry x="170" y="57" width="120" height="60" as="geometry" />
        </mxCell>
        <mxCell id="_15MaiO5bEoczQWwSuel-5" value="Firewall" style="rounded=0;whiteSpace=wrap;html=1;" vertex="1" parent="1">
          <mxGeometry x="390" y="57" width="120" height="60" as="geometry" />
        </mxCell>
        <mxCell id="_15MaiO5bEoczQWwSuel-6" value="67" style="rounded=0;whiteSpace=wrap;html=1;" vertex="1" parent="1">
          <mxGeometry x="110" y="87" width="60" height="30" as="geometry" />
        </mxCell>
        <mxCell id="_15MaiO5bEoczQWwSuel-7" value="Port" style="rounded=0;whiteSpace=wrap;html=1;" vertex="1" parent="1">
          <mxGeometry x="110" y="57" width="60" height="30" as="geometry" />
        </mxCell>
        <mxCell id="_15MaiO5bEoczQWwSuel-8" value="ssh" style="rounded=0;whiteSpace=wrap;html=1;" vertex="1" parent="1">
          <mxGeometry x="600" y="1050" width="120" height="60" as="geometry" />
        </mxCell>
        <mxCell id="_15MaiO5bEoczQWwSuel-9" value="22" style="rounded=0;whiteSpace=wrap;html=1;" vertex="1" parent="1">
          <mxGeometry x="720" y="1080" width="60" height="30" as="geometry" />
        </mxCell>
        <mxCell id="_15MaiO5bEoczQWwSuel-10" value="Port" style="rounded=0;whiteSpace=wrap;html=1;" vertex="1" parent="1">
          <mxGeometry x="720" y="1050" width="60" height="30" as="geometry" />
        </mxCell>
        <mxCell id="_15MaiO5bEoczQWwSuel-11" value="Docker" style="rounded=0;whiteSpace=wrap;html=1;verticalAlign=top;" vertex="1" parent="1">
          <mxGeometry x="370" y="280" width="350" height="740" as="geometry" />
        </mxCell>
        <mxCell id="_15MaiO5bEoczQWwSuel-12" value="" style="shape=image;html=1;verticalAlign=top;verticalLabelPosition=bottom;labelBackgroundColor=#ffffff;imageAspect=0;aspect=fixed;image=https://cdn1.iconfinder.com/data/icons/unicons-line-vol-3/24/docker-128.png" vertex="1" parent="1">
          <mxGeometry x="692.5" y="280" width="27.5" height="27.5" as="geometry" />
        </mxCell>
        <mxCell id="_15MaiO5bEoczQWwSuel-13" value="Volumes" style="rounded=0;whiteSpace=wrap;html=1;verticalAlign=top;" vertex="1" parent="1">
          <mxGeometry x="390" y="310" width="170" height="660" as="geometry" />
        </mxCell>
        <mxCell id="_15MaiO5bEoczQWwSuel-14" value="Portainer" style="rounded=0;whiteSpace=wrap;html=1;" vertex="1" parent="1">
          <mxGeometry x="600" y="320" width="120" height="60" as="geometry" />
        </mxCell>
        <mxCell id="_15MaiO5bEoczQWwSuel-15" value="8000" style="rounded=0;whiteSpace=wrap;html=1;" vertex="1" parent="1">
          <mxGeometry x="720" y="350" width="60" height="30" as="geometry" />
        </mxCell>
        <mxCell id="_15MaiO5bEoczQWwSuel-16" value="Port" style="rounded=0;whiteSpace=wrap;html=1;" vertex="1" parent="1">
          <mxGeometry x="720" y="320" width="120" height="30" as="geometry" />
        </mxCell>
        <mxCell id="_15MaiO5bEoczQWwSuel-21" style="edgeStyle=orthogonalEdgeStyle;rounded=0;orthogonalLoop=1;jettySize=auto;html=1;exitX=0;exitY=0.5;exitDx=0;exitDy=0;entryX=1;entryY=0.5;entryDx=0;entryDy=0;" edge="1" parent="1" source="_15MaiO5bEoczQWwSuel-24" target="_15MaiO5bEoczQWwSuel-43">
          <mxGeometry relative="1" as="geometry" />
        </mxCell>
        <mxCell id="_15MaiO5bEoczQWwSuel-22" style="edgeStyle=orthogonalEdgeStyle;rounded=0;orthogonalLoop=1;jettySize=auto;html=1;entryX=1;entryY=0.5;entryDx=0;entryDy=0;" edge="1" parent="1" source="_15MaiO5bEoczQWwSuel-24" target="_15MaiO5bEoczQWwSuel-42">
          <mxGeometry relative="1" as="geometry" />
        </mxCell>
        <mxCell id="_15MaiO5bEoczQWwSuel-23" style="edgeStyle=orthogonalEdgeStyle;rounded=0;orthogonalLoop=1;jettySize=auto;html=1;entryX=1;entryY=0.5;entryDx=0;entryDy=0;" edge="1" parent="1" source="_15MaiO5bEoczQWwSuel-24" target="_15MaiO5bEoczQWwSuel-64">
          <mxGeometry relative="1" as="geometry" />
        </mxCell>
        <mxCell id="_15MaiO5bEoczQWwSuel-24" value="Pihole" style="rounded=0;whiteSpace=wrap;html=1;" vertex="1" parent="1">
          <mxGeometry x="600" y="490" width="120" height="60" as="geometry" />
        </mxCell>
        <mxCell id="_15MaiO5bEoczQWwSuel-25" value="53" style="rounded=0;whiteSpace=wrap;html=1;" vertex="1" parent="1">
          <mxGeometry x="720" y="520" width="60" height="30" as="geometry" />
        </mxCell>
        <mxCell id="_15MaiO5bEoczQWwSuel-26" value="Port" style="rounded=0;whiteSpace=wrap;html=1;" vertex="1" parent="1">
          <mxGeometry x="720" y="490" width="180" height="30" as="geometry" />
        </mxCell>
        <mxCell id="_15MaiO5bEoczQWwSuel-27" value="IPV4 Address" style="rounded=0;whiteSpace=wrap;html=1;" vertex="1" parent="1">
          <mxGeometry x="170" y="157" width="230" height="30" as="geometry" />
        </mxCell>
        <mxCell id="_15MaiO5bEoczQWwSuel-28" value="192.168.0.1" style="rounded=0;whiteSpace=wrap;html=1;" vertex="1" parent="1">
          <mxGeometry x="400" y="157" width="120" height="30" as="geometry" />
        </mxCell>
        <mxCell id="_15MaiO5bEoczQWwSuel-29" value="IPV4 Address" style="rounded=0;whiteSpace=wrap;html=1;" vertex="1" parent="1">
          <mxGeometry x="350" y="1140" width="250" height="30" as="geometry" />
        </mxCell>
        <mxCell id="_15MaiO5bEoczQWwSuel-30" value="192.168.0.2" style="rounded=0;whiteSpace=wrap;html=1;" vertex="1" parent="1">
          <mxGeometry x="600" y="1140" width="120" height="30" as="geometry" />
        </mxCell>
        <mxCell id="_15MaiO5bEoczQWwSuel-31" style="edgeStyle=orthogonalEdgeStyle;rounded=0;orthogonalLoop=1;jettySize=auto;html=1;" edge="1" parent="1" source="_15MaiO5bEoczQWwSuel-35" target="_15MaiO5bEoczQWwSuel-65">
          <mxGeometry relative="1" as="geometry" />
        </mxCell>
        <mxCell id="_15MaiO5bEoczQWwSuel-32" style="edgeStyle=orthogonalEdgeStyle;rounded=0;orthogonalLoop=1;jettySize=auto;html=1;" edge="1" parent="1" source="_15MaiO5bEoczQWwSuel-35" target="_15MaiO5bEoczQWwSuel-66">
          <mxGeometry relative="1" as="geometry" />
        </mxCell>
        <mxCell id="_15MaiO5bEoczQWwSuel-33" style="edgeStyle=orthogonalEdgeStyle;rounded=0;orthogonalLoop=1;jettySize=auto;html=1;" edge="1" parent="1" source="_15MaiO5bEoczQWwSuel-35" target="_15MaiO5bEoczQWwSuel-67">
          <mxGeometry relative="1" as="geometry" />
        </mxCell>
        <mxCell id="_15MaiO5bEoczQWwSuel-34" style="edgeStyle=orthogonalEdgeStyle;rounded=0;orthogonalLoop=1;jettySize=auto;html=1;" edge="1" parent="1" source="_15MaiO5bEoczQWwSuel-35" target="_15MaiO5bEoczQWwSuel-68">
          <mxGeometry relative="1" as="geometry" />
        </mxCell>
        <mxCell id="_15MaiO5bEoczQWwSuel-35" value="Plex" style="rounded=0;whiteSpace=wrap;html=1;" vertex="1" parent="1">
          <mxGeometry x="600" y="615" width="120" height="60" as="geometry" />
        </mxCell>
        <mxCell id="_15MaiO5bEoczQWwSuel-36" value="32400" style="rounded=0;whiteSpace=wrap;html=1;" vertex="1" parent="1">
          <mxGeometry x="720" y="645" width="60" height="30" as="geometry" />
        </mxCell>
        <mxCell id="_15MaiO5bEoczQWwSuel-37" value="Port" style="rounded=0;whiteSpace=wrap;html=1;" vertex="1" parent="1">
          <mxGeometry x="720" y="615" width="240" height="30" as="geometry" />
        </mxCell>
        <mxCell id="_15MaiO5bEoczQWwSuel-38" value="portainer_data" style="rounded=0;whiteSpace=wrap;html=1;" vertex="1" parent="1">
          <mxGeometry x="405" y="335" width="100" height="30" as="geometry" />
        </mxCell>
        <mxCell id="_15MaiO5bEoczQWwSuel-39" style="edgeStyle=orthogonalEdgeStyle;rounded=0;orthogonalLoop=1;jettySize=auto;html=1;exitX=0;exitY=0.5;exitDx=0;exitDy=0;" edge="1" parent="1" source="_15MaiO5bEoczQWwSuel-14" target="_15MaiO5bEoczQWwSuel-38">
          <mxGeometry relative="1" as="geometry" />
        </mxCell>
        <mxCell id="_15MaiO5bEoczQWwSuel-40" value="step" style="rounded=0;whiteSpace=wrap;html=1;" vertex="1" parent="1">
          <mxGeometry x="405" y="725" width="100" height="30" as="geometry" />
        </mxCell>
        <mxCell id="_15MaiO5bEoczQWwSuel-42" value="etc_pihole" style="rounded=0;whiteSpace=wrap;html=1;" vertex="1" parent="1">
          <mxGeometry x="405" y="475" width="100" height="30" as="geometry" />
        </mxCell>
        <mxCell id="_15MaiO5bEoczQWwSuel-43" value="etc_dnsmasq_d" style="rounded=0;whiteSpace=wrap;html=1;" vertex="1" parent="1">
          <mxGeometry x="405" y="505" width="100" height="30" as="geometry" />
        </mxCell>
        <mxCell id="_15MaiO5bEoczQWwSuel-45" value="9433" style="rounded=0;whiteSpace=wrap;html=1;" vertex="1" parent="1">
          <mxGeometry x="780" y="350" width="60" height="30" as="geometry" />
        </mxCell>
        <mxCell id="_15MaiO5bEoczQWwSuel-46" value="2080" style="rounded=0;whiteSpace=wrap;html=1;" vertex="1" parent="1">
          <mxGeometry x="780" y="520" width="60" height="30" as="geometry" />
        </mxCell>
        <mxCell id="_15MaiO5bEoczQWwSuel-56" style="edgeStyle=orthogonalEdgeStyle;rounded=0;orthogonalLoop=1;jettySize=auto;html=1;exitX=0;exitY=0.5;exitDx=0;exitDy=0;" edge="1" parent="1" source="_15MaiO5bEoczQWwSuel-57" target="_15MaiO5bEoczQWwSuel-40">
          <mxGeometry relative="1" as="geometry" />
        </mxCell>
        <mxCell id="_15MaiO5bEoczQWwSuel-57" value="smallstep" style="rounded=0;whiteSpace=wrap;html=1;" vertex="1" parent="1">
          <mxGeometry x="600" y="710" width="120" height="60" as="geometry" />
        </mxCell>
        <mxCell id="_15MaiO5bEoczQWwSuel-58" value="Port" style="rounded=0;whiteSpace=wrap;html=1;" vertex="1" parent="1">
          <mxGeometry x="720" y="710" width="60" height="30" as="geometry" />
        </mxCell>
        <mxCell id="_15MaiO5bEoczQWwSuel-59" value="4443" style="rounded=0;whiteSpace=wrap;html=1;" vertex="1" parent="1">
          <mxGeometry x="720" y="740" width="60" height="30" as="geometry" />
        </mxCell>
        <mxCell id="_15MaiO5bEoczQWwSuel-60" value="32401" style="rounded=0;whiteSpace=wrap;html=1;" vertex="1" parent="1">
          <mxGeometry x="780" y="645" width="60" height="30" as="geometry" />
        </mxCell>
        <mxCell id="_15MaiO5bEoczQWwSuel-61" value="32600" style="rounded=0;whiteSpace=wrap;html=1;" vertex="1" parent="1">
          <mxGeometry x="840" y="645" width="60" height="30" as="geometry" />
        </mxCell>
        <mxCell id="_15MaiO5bEoczQWwSuel-62" value="44329" style="rounded=0;whiteSpace=wrap;html=1;" vertex="1" parent="1">
          <mxGeometry x="900" y="645" width="60" height="30" as="geometry" />
        </mxCell>
        <mxCell id="_15MaiO5bEoczQWwSuel-63" value="2443&lt;span style=&quot;color: rgb(51, 51, 51); font-family: Inter; font-size: 13px; text-align: start; background-color: rgb(255, 255, 255);&quot;&gt;&lt;/span&gt;" style="rounded=0;whiteSpace=wrap;html=1;" vertex="1" parent="1">
          <mxGeometry x="840" y="520" width="60" height="30" as="geometry" />
        </mxCell>
        <mxCell id="_15MaiO5bEoczQWwSuel-64" value="etc_lighttpd" style="rounded=0;whiteSpace=wrap;html=1;" vertex="1" parent="1">
          <mxGeometry x="405" y="535" width="100" height="30" as="geometry" />
        </mxCell>
        <mxCell id="_15MaiO5bEoczQWwSuel-65" value="plex_music" style="rounded=0;whiteSpace=wrap;html=1;" vertex="1" parent="1">
          <mxGeometry x="405" y="585" width="100" height="30" as="geometry" />
        </mxCell>
        <mxCell id="_15MaiO5bEoczQWwSuel-66" value="plex_tv" style="rounded=0;whiteSpace=wrap;html=1;" vertex="1" parent="1">
          <mxGeometry x="405" y="615" width="100" height="30" as="geometry" />
        </mxCell>
        <mxCell id="_15MaiO5bEoczQWwSuel-67" value="plex_config" style="rounded=0;whiteSpace=wrap;html=1;" vertex="1" parent="1">
          <mxGeometry x="405" y="645" width="100" height="30" as="geometry" />
        </mxCell>
        <mxCell id="_15MaiO5bEoczQWwSuel-68" value="plex_movies" style="rounded=0;whiteSpace=wrap;html=1;" vertex="1" parent="1">
          <mxGeometry x="405" y="675" width="100" height="30" as="geometry" />
        </mxCell>
        <mxCell id="_15MaiO5bEoczQWwSuel-70" value="step-cli" style="rounded=0;whiteSpace=wrap;html=1;" vertex="1" parent="1">
          <mxGeometry x="370" y="1050" width="120" height="60" as="geometry" />
        </mxCell>
        <mxCell id="_15MaiO5bEoczQWwSuel-71" style="edgeStyle=orthogonalEdgeStyle;rounded=0;orthogonalLoop=1;jettySize=auto;html=1;entryX=1;entryY=0.5;entryDx=0;entryDy=0;" edge="1" parent="1" source="_15MaiO5bEoczQWwSuel-72" target="_15MaiO5bEoczQWwSuel-59">
          <mxGeometry relative="1" as="geometry">
            <Array as="points">
              <mxPoint x="120" y="350" />
              <mxPoint x="120" y="210" />
              <mxPoint x="990" y="210" />
              <mxPoint x="990" y="755" />
            </Array>
          </mxGeometry>
        </mxCell>
        <mxCell id="_15MaiO5bEoczQWwSuel-72" value="step-cli" style="rounded=0;whiteSpace=wrap;html=1;" vertex="1" parent="1">
          <mxGeometry x="-80" y="320" width="120" height="60" as="geometry" />
        </mxCell>
        <mxCell id="_15MaiO5bEoczQWwSuel-73" style="edgeStyle=orthogonalEdgeStyle;rounded=0;orthogonalLoop=1;jettySize=auto;html=1;entryX=1;entryY=0.5;entryDx=0;entryDy=0;" edge="1" parent="1" source="_15MaiO5bEoczQWwSuel-75" target="_15MaiO5bEoczQWwSuel-78">
          <mxGeometry relative="1" as="geometry" />
        </mxCell>
        <mxCell id="_15MaiO5bEoczQWwSuel-74" style="edgeStyle=orthogonalEdgeStyle;rounded=0;orthogonalLoop=1;jettySize=auto;html=1;entryX=1;entryY=0.5;entryDx=0;entryDy=0;" edge="1" parent="1" source="_15MaiO5bEoczQWwSuel-75" target="_15MaiO5bEoczQWwSuel-9">
          <mxGeometry relative="1" as="geometry">
            <Array as="points">
              <mxPoint x="120" y="426" />
              <mxPoint x="120" y="1200" />
              <mxPoint x="800" y="1200" />
              <mxPoint x="800" y="1095" />
            </Array>
          </mxGeometry>
        </mxCell>
        <mxCell id="_15MaiO5bEoczQWwSuel-75" value="ssh" style="rounded=0;whiteSpace=wrap;html=1;" vertex="1" parent="1">
          <mxGeometry x="-80" y="396.25" width="120" height="60" as="geometry" />
        </mxCell>
        <mxCell id="_15MaiO5bEoczQWwSuel-76" value="IPV4 Address" style="rounded=0;whiteSpace=wrap;html=1;" vertex="1" parent="1">
          <mxGeometry x="-110" y="480" width="100" height="30" as="geometry" />
        </mxCell>
        <mxCell id="_15MaiO5bEoczQWwSuel-77" value="&amp;lt;dynamic&amp;gt;" style="rounded=0;whiteSpace=wrap;html=1;" vertex="1" parent="1">
          <mxGeometry x="-10" y="480" width="80" height="30" as="geometry" />
        </mxCell>
        <mxCell id="_15MaiO5bEoczQWwSuel-78" value="id_rsa.pub" style="rounded=0;whiteSpace=wrap;html=1;" vertex="1" parent="1">
          <mxGeometry x="-330" y="396" width="120" height="60" as="geometry" />
        </mxCell>
        <mxCell id="oP6JX8e81uVfAl8O1CX_-3" value="stack: homelab" style="swimlane;whiteSpace=wrap;html=1;" vertex="1" parent="1">
          <mxGeometry x="1040" y="940" width="720" height="920" as="geometry" />
        </mxCell>
        <mxCell id="_15MaiO5bEoczQWwSuel-48" value="3306" style="rounded=0;whiteSpace=wrap;html=1;" vertex="1" parent="oP6JX8e81uVfAl8O1CX_-3">
          <mxGeometry x="40" y="110" width="170" height="30" as="geometry" />
        </mxCell>
        <mxCell id="_15MaiO5bEoczQWwSuel-50" value="ghost_db" style="rounded=0;whiteSpace=wrap;html=1;fillColor=#f5f5f5;fontColor=#333333;strokeColor=#666666;" vertex="1" parent="oP6JX8e81uVfAl8O1CX_-3">
          <mxGeometry x="30" y="50" width="180" height="30" as="geometry" />
        </mxCell>
        <mxCell id="_15MaiO5bEoczQWwSuel-51" value="Port" style="rounded=0;whiteSpace=wrap;html=1;align=left;spacing=8;" vertex="1" parent="oP6JX8e81uVfAl8O1CX_-3">
          <mxGeometry x="30" y="80" width="180" height="30" as="geometry" />
        </mxCell>
        <mxCell id="oP6JX8e81uVfAl8O1CX_-7" style="edgeStyle=elbowEdgeStyle;rounded=1;jumpStyle=gap;orthogonalLoop=1;jettySize=auto;html=1;entryX=1;entryY=0.5;entryDx=0;entryDy=0;" edge="1" parent="oP6JX8e81uVfAl8O1CX_-3" source="_15MaiO5bEoczQWwSuel-53" target="_15MaiO5bEoczQWwSuel-50">
          <mxGeometry relative="1" as="geometry">
            <Array as="points">
              <mxPoint x="260" y="120" />
            </Array>
          </mxGeometry>
        </mxCell>
        <mxCell id="_15MaiO5bEoczQWwSuel-53" value="ghost" style="rounded=0;whiteSpace=wrap;html=1;fillColor=#f5f5f5;fontColor=#333333;strokeColor=#666666;" vertex="1" parent="oP6JX8e81uVfAl8O1CX_-3">
          <mxGeometry x="30" y="230.25" width="180" height="30" as="geometry" />
        </mxCell>
        <mxCell id="_15MaiO5bEoczQWwSuel-54" value="Port" style="rounded=0;whiteSpace=wrap;html=1;align=left;spacing=8;" vertex="1" parent="oP6JX8e81uVfAl8O1CX_-3">
          <mxGeometry x="30" y="260.25" width="180" height="30" as="geometry" />
        </mxCell>
        <mxCell id="_15MaiO5bEoczQWwSuel-55" value="2368" style="rounded=0;whiteSpace=wrap;html=1;" vertex="1" parent="oP6JX8e81uVfAl8O1CX_-3">
          <mxGeometry x="40" y="290" width="170" height="30" as="geometry" />
        </mxCell>
        <mxCell id="_15MaiO5bEoczQWwSuel-83" value="80" style="rounded=0;whiteSpace=wrap;html=1;" vertex="1" parent="oP6JX8e81uVfAl8O1CX_-3">
          <mxGeometry x="615" y="460.25" width="60" height="30" as="geometry" />
        </mxCell>
        <mxCell id="lg8V0P7H4ACt_r96peyo-28" style="edgeStyle=elbowEdgeStyle;rounded=1;jumpStyle=gap;orthogonalLoop=1;jettySize=auto;html=1;entryX=1;entryY=0.5;entryDx=0;entryDy=0;fontSize=14;" edge="1" parent="oP6JX8e81uVfAl8O1CX_-3" source="_15MaiO5bEoczQWwSuel-94" target="lg8V0P7H4ACt_r96peyo-8">
          <mxGeometry relative="1" as="geometry" />
        </mxCell>
        <mxCell id="_15MaiO5bEoczQWwSuel-94" value="ghost.internal" style="rounded=0;whiteSpace=wrap;html=1;" vertex="1" parent="oP6JX8e81uVfAl8O1CX_-3">
          <mxGeometry x="515" y="460.25" width="100" height="30" as="geometry" />
        </mxCell>
        <mxCell id="_15MaiO5bEoczQWwSuel-81" value="nginx" style="rounded=0;whiteSpace=wrap;html=1;fillColor=#f5f5f5;strokeColor=#666666;fontColor=#333333;" vertex="1" parent="oP6JX8e81uVfAl8O1CX_-3">
          <mxGeometry x="515" y="400" width="160" height="30" as="geometry" />
        </mxCell>
        <mxCell id="lg8V0P7H4ACt_r96peyo-29" style="edgeStyle=elbowEdgeStyle;rounded=1;jumpStyle=gap;orthogonalLoop=1;jettySize=auto;html=1;entryX=1;entryY=0.5;entryDx=0;entryDy=0;fontSize=14;" edge="1" parent="oP6JX8e81uVfAl8O1CX_-3" source="_15MaiO5bEoczQWwSuel-95" target="_15MaiO5bEoczQWwSuel-55">
          <mxGeometry relative="1" as="geometry" />
        </mxCell>
        <mxCell id="_15MaiO5bEoczQWwSuel-95" value="heimdall.internal" style="rounded=0;whiteSpace=wrap;html=1;" vertex="1" parent="oP6JX8e81uVfAl8O1CX_-3">
          <mxGeometry x="515" y="430.25" width="100" height="30" as="geometry" />
        </mxCell>
        <mxCell id="_15MaiO5bEoczQWwSuel-96" value="80" style="rounded=0;whiteSpace=wrap;html=1;" vertex="1" parent="oP6JX8e81uVfAl8O1CX_-3">
          <mxGeometry x="615" y="430.25" width="60" height="30" as="geometry" />
        </mxCell>
        <mxCell id="_15MaiO5bEoczQWwSuel-18" value="heimdall" style="rounded=0;whiteSpace=wrap;html=1;fillColor=#f5f5f5;fontColor=#333333;strokeColor=#666666;" vertex="1" parent="oP6JX8e81uVfAl8O1CX_-3">
          <mxGeometry x="30" y="400" width="180" height="30" as="geometry" />
        </mxCell>
        <mxCell id="lg8V0P7H4ACt_r96peyo-5" value="heimdall_config" style="rounded=0;whiteSpace=wrap;html=1;" vertex="1" parent="oP6JX8e81uVfAl8O1CX_-3">
          <mxGeometry x="40" y="550" width="170" height="30" as="geometry" />
        </mxCell>
        <mxCell id="lg8V0P7H4ACt_r96peyo-8" value="80" style="rounded=0;whiteSpace=wrap;html=1;" vertex="1" parent="oP6JX8e81uVfAl8O1CX_-3">
          <mxGeometry x="40" y="460" width="170" height="30" as="geometry" />
        </mxCell>
        <mxCell id="lg8V0P7H4ACt_r96peyo-9" value="443" style="rounded=0;whiteSpace=wrap;html=1;" vertex="1" parent="oP6JX8e81uVfAl8O1CX_-3">
          <mxGeometry x="40" y="490" width="170" height="30" as="geometry" />
        </mxCell>
        <mxCell id="lg8V0P7H4ACt_r96peyo-10" value="Port" style="rounded=0;whiteSpace=wrap;html=1;align=left;spacing=8;" vertex="1" parent="oP6JX8e81uVfAl8O1CX_-3">
          <mxGeometry x="30" y="430" width="180" height="30" as="geometry" />
        </mxCell>
        <mxCell id="lg8V0P7H4ACt_r96peyo-11" value="ghost_data" style="rounded=0;whiteSpace=wrap;html=1;" vertex="1" parent="oP6JX8e81uVfAl8O1CX_-3">
          <mxGeometry x="40" y="170" width="170" height="30" as="geometry" />
        </mxCell>
        <mxCell id="lg8V0P7H4ACt_r96peyo-12" value="Volume" style="rounded=0;whiteSpace=wrap;html=1;align=left;spacing=8;" vertex="1" parent="oP6JX8e81uVfAl8O1CX_-3">
          <mxGeometry x="30" y="140" width="180" height="30" as="geometry" />
        </mxCell>
        <mxCell id="lg8V0P7H4ACt_r96peyo-17" value="Port" style="rounded=0;whiteSpace=wrap;html=1;align=left;spacing=8;" vertex="1" parent="oP6JX8e81uVfAl8O1CX_-3">
          <mxGeometry x="30" y="730" width="180" height="30" as="geometry" />
        </mxCell>
        <mxCell id="lg8V0P7H4ACt_r96peyo-18" value="smallstep" style="rounded=0;whiteSpace=wrap;html=1;fillColor=#f5f5f5;fontColor=#333333;strokeColor=#666666;" vertex="1" parent="oP6JX8e81uVfAl8O1CX_-3">
          <mxGeometry x="30" y="700" width="180" height="30" as="geometry" />
        </mxCell>
        <mxCell id="lg8V0P7H4ACt_r96peyo-19" value="443" style="rounded=0;whiteSpace=wrap;html=1;" vertex="1" parent="oP6JX8e81uVfAl8O1CX_-3">
          <mxGeometry x="40" y="760" width="170" height="30" as="geometry" />
        </mxCell>
        <mxCell id="lg8V0P7H4ACt_r96peyo-21" value="Volume" style="rounded=0;whiteSpace=wrap;html=1;align=left;spacing=8;" vertex="1" parent="oP6JX8e81uVfAl8O1CX_-3">
          <mxGeometry x="30" y="790" width="180" height="30" as="geometry" />
        </mxCell>
        <mxCell id="lg8V0P7H4ACt_r96peyo-23" value="step" style="rounded=0;whiteSpace=wrap;html=1;" vertex="1" parent="oP6JX8e81uVfAl8O1CX_-3">
          <mxGeometry x="40" y="820" width="170" height="30" as="geometry" />
        </mxCell>
        <mxCell id="lg8V0P7H4ACt_r96peyo-30" style="edgeStyle=elbowEdgeStyle;rounded=1;jumpStyle=gap;orthogonalLoop=1;jettySize=auto;html=1;entryX=1;entryY=0.5;entryDx=0;entryDy=0;fontSize=14;" edge="1" parent="oP6JX8e81uVfAl8O1CX_-3" source="lg8V0P7H4ACt_r96peyo-25" target="lg8V0P7H4ACt_r96peyo-19">
          <mxGeometry relative="1" as="geometry" />
        </mxCell>
        <mxCell id="lg8V0P7H4ACt_r96peyo-25" value="ca.internal" style="rounded=0;whiteSpace=wrap;html=1;" vertex="1" parent="oP6JX8e81uVfAl8O1CX_-3">
          <mxGeometry x="515" y="490.25" width="100" height="30" as="geometry" />
        </mxCell>
        <mxCell id="lg8V0P7H4ACt_r96peyo-26" value="80" style="rounded=0;whiteSpace=wrap;html=1;" vertex="1" parent="oP6JX8e81uVfAl8O1CX_-3">
          <mxGeometry x="615" y="490.25" width="60" height="30" as="geometry" />
        </mxCell>
        <mxCell id="lg8V0P7H4ACt_r96peyo-27" style="edgeStyle=elbowEdgeStyle;rounded=1;jumpStyle=gap;orthogonalLoop=1;jettySize=auto;html=1;exitX=0.5;exitY=1;exitDx=0;exitDy=0;fontSize=14;" edge="1" parent="oP6JX8e81uVfAl8O1CX_-3" source="lg8V0P7H4ACt_r96peyo-26" target="lg8V0P7H4ACt_r96peyo-26">
          <mxGeometry relative="1" as="geometry" />
        </mxCell>
        <mxCell id="lg8V0P7H4ACt_r96peyo-1" value="step" style="rounded=0;whiteSpace=wrap;html=1;fillColor=#f5f5f5;fontColor=#333333;strokeColor=#666666;" vertex="1" parent="1">
          <mxGeometry x="850" y="1760" width="100" height="30" as="geometry" />
        </mxCell>
        <mxCell id="lg8V0P7H4ACt_r96peyo-2" value="heimdall_config" style="rounded=0;whiteSpace=wrap;html=1;fillColor=#f5f5f5;strokeColor=#666666;fontColor=#333333;" vertex="1" parent="1">
          <mxGeometry x="850" y="1490" width="100" height="30" as="geometry" />
        </mxCell>
        <mxCell id="lg8V0P7H4ACt_r96peyo-3" value="ghost_data" style="rounded=0;whiteSpace=wrap;html=1;fillColor=#f5f5f5;fontColor=#333333;strokeColor=#666666;" vertex="1" parent="1">
          <mxGeometry x="860" y="1110" width="100" height="30" as="geometry" />
        </mxCell>
        <mxCell id="lg8V0P7H4ACt_r96peyo-7" style="edgeStyle=elbowEdgeStyle;rounded=1;jumpStyle=gap;orthogonalLoop=1;jettySize=auto;html=1;entryX=1;entryY=0.5;entryDx=0;entryDy=0;" edge="1" parent="1" source="lg8V0P7H4ACt_r96peyo-5" target="lg8V0P7H4ACt_r96peyo-2">
          <mxGeometry relative="1" as="geometry" />
        </mxCell>
        <mxCell id="lg8V0P7H4ACt_r96peyo-4" value="Volume" style="rounded=0;whiteSpace=wrap;html=1;align=left;spacing=8;" vertex="1" parent="1">
          <mxGeometry x="1070" y="1460" width="180" height="30" as="geometry" />
        </mxCell>
        <mxCell id="lg8V0P7H4ACt_r96peyo-13" style="edgeStyle=elbowEdgeStyle;rounded=1;jumpStyle=gap;orthogonalLoop=1;jettySize=auto;html=1;entryX=1;entryY=0.5;entryDx=0;entryDy=0;fontSize=14;" edge="1" parent="1" source="lg8V0P7H4ACt_r96peyo-11" target="lg8V0P7H4ACt_r96peyo-3">
          <mxGeometry relative="1" as="geometry" />
        </mxCell>
        <mxCell id="lg8V0P7H4ACt_r96peyo-24" style="edgeStyle=elbowEdgeStyle;rounded=1;jumpStyle=gap;orthogonalLoop=1;jettySize=auto;html=1;fontSize=14;" edge="1" parent="1" source="lg8V0P7H4ACt_r96peyo-23" target="lg8V0P7H4ACt_r96peyo-1">
          <mxGeometry relative="1" as="geometry" />
        </mxCell>
      </root>
    </mxGraphModel>
  </diagram>
  <diagram id="mxYXBUb_adttdXQvDAjq" name="Kubernetes">
    <mxGraphModel dx="2284" dy="1888" grid="1" gridSize="10" guides="1" tooltips="1" connect="1" arrows="1" fold="1" page="1" pageScale="1" pageWidth="850" pageHeight="1100" math="0" shadow="0">
      <root>
        <mxCell id="0" />
        <mxCell id="1" parent="0" />
        <mxCell id="JdqZie4KPndp9T757h1O-312" value="Namespace" style="swimlane;whiteSpace=wrap;html=1;fontSize=9;fontColor=#000000;container=0;collapsible=0;rounded=1;swimlaneLine=0;dashed=1;shadow=0;dashPattern=8 8;fillStyle=auto;fillColor=none;strokeColor=#4D4D4D;" parent="1" vertex="1">
          <mxGeometry x="-200" y="1060" width="960" height="420" as="geometry" />
        </mxCell>
        <mxCell id="JdqZie4KPndp9T757h1O-261" value="" style="group" parent="JdqZie4KPndp9T757h1O-312" vertex="1" connectable="0">
          <mxGeometry x="700" y="138" width="200" height="62" as="geometry" />
        </mxCell>
        <mxCell id="JdqZie4KPndp9T757h1O-262" value="pvc.plex" style="rounded=0;whiteSpace=wrap;html=1;" parent="JdqZie4KPndp9T757h1O-261" vertex="1">
          <mxGeometry y="30" width="200" height="32" as="geometry" />
        </mxCell>
        <mxCell id="JdqZie4KPndp9T757h1O-263" value="Persistent Volume Claim" style="rounded=0;whiteSpace=wrap;html=1;verticalAlign=middle;fillColor=#f5f5f5;strokeColor=#666666;fontColor=#333333;fontStyle=1" parent="JdqZie4KPndp9T757h1O-261" vertex="1">
          <mxGeometry width="200" height="30" as="geometry" />
        </mxCell>
        <mxCell id="JdqZie4KPndp9T757h1O-264" value="" style="sketch=0;html=1;dashed=0;whitespace=wrap;fillColor=#2875E2;strokeColor=#ffffff;points=[[0.005,0.63,0],[0.1,0.2,0],[0.9,0.2,0],[0.5,0,0],[0.995,0.63,0],[0.72,0.99,0],[0.5,1,0],[0.28,0.99,0]];verticalLabelPosition=bottom;align=center;verticalAlign=top;shape=mxgraph.kubernetes.icon;prIcon=pvc;fontColor=#ffffff;aspect=fixed;" parent="JdqZie4KPndp9T757h1O-261" vertex="1">
          <mxGeometry x="172" y="3" width="25" height="24" as="geometry" />
        </mxCell>
        <mxCell id="JdqZie4KPndp9T757h1O-255" value="" style="group" parent="JdqZie4KPndp9T757h1O-312" vertex="1" connectable="0">
          <mxGeometry x="372.5" y="200" width="210" height="106" as="geometry" />
        </mxCell>
        <mxCell id="JdqZie4KPndp9T757h1O-248" value="name: &lt;span style=&quot;white-space: pre;&quot;&gt; &lt;/span&gt;pod.plex&lt;br&gt;image:&lt;span style=&quot;white-space: pre;&quot;&gt; &lt;/span&gt;lscr.io/linuxserver/plex:latest" style="rounded=0;whiteSpace=wrap;html=1;fontColor=#000000;verticalAlign=top;align=left;" parent="JdqZie4KPndp9T757h1O-255" vertex="1">
          <mxGeometry y="30" width="210" height="52" as="geometry" />
        </mxCell>
        <mxCell id="JdqZie4KPndp9T757h1O-249" value="Pod" style="rounded=0;whiteSpace=wrap;html=1;verticalAlign=middle;fillColor=#f5f5f5;strokeColor=#666666;fontColor=#333333;fontStyle=1" parent="JdqZie4KPndp9T757h1O-255" vertex="1">
          <mxGeometry width="210" height="30" as="geometry" />
        </mxCell>
        <mxCell id="JdqZie4KPndp9T757h1O-250" value="" style="sketch=0;html=1;dashed=0;whitespace=wrap;fillColor=#2875E2;strokeColor=#ffffff;points=[[0.005,0.63,0],[0.1,0.2,0],[0.9,0.2,0],[0.5,0,0],[0.995,0.63,0],[0.72,0.99,0],[0.5,1,0],[0.28,0.99,0]];verticalLabelPosition=bottom;align=center;verticalAlign=top;shape=mxgraph.kubernetes.icon;prIcon=pod;fontColor=#000000;aspect=fixed;" parent="JdqZie4KPndp9T757h1O-255" vertex="1">
          <mxGeometry x="182" y="3" width="25" height="24" as="geometry" />
        </mxCell>
        <mxCell id="JdqZie4KPndp9T757h1O-251" value="Port" style="rounded=0;whiteSpace=wrap;html=1;fontColor=#000000;verticalAlign=top;align=left;" parent="JdqZie4KPndp9T757h1O-255" vertex="1">
          <mxGeometry y="82" width="110" height="24" as="geometry" />
        </mxCell>
        <mxCell id="JdqZie4KPndp9T757h1O-252" value="32400" style="rounded=0;whiteSpace=wrap;html=1;fontColor=#000000;verticalAlign=top;" parent="JdqZie4KPndp9T757h1O-255" vertex="1">
          <mxGeometry x="110" y="82" width="100" height="24" as="geometry" />
        </mxCell>
        <mxCell id="JdqZie4KPndp9T757h1O-260" style="edgeStyle=orthogonalEdgeStyle;rounded=1;orthogonalLoop=1;jettySize=auto;html=1;entryX=0.5;entryY=0;entryDx=0;entryDy=0;fontSize=9;fontColor=#000000;exitX=1;exitY=0.5;exitDx=0;exitDy=0;jumpStyle=gap;" parent="JdqZie4KPndp9T757h1O-312" source="JdqZie4KPndp9T757h1O-258" target="JdqZie4KPndp9T757h1O-249" edge="1">
          <mxGeometry relative="1" as="geometry" />
        </mxCell>
        <mxCell id="JdqZie4KPndp9T757h1O-266" value="" style="group" parent="JdqZie4KPndp9T757h1O-312" vertex="1" connectable="0">
          <mxGeometry x="60" y="200" width="170" height="110" as="geometry" />
        </mxCell>
        <mxCell id="JdqZie4KPndp9T757h1O-267" value="Service" style="rounded=0;whiteSpace=wrap;html=1;verticalAlign=middle;fillColor=#f5f5f5;strokeColor=#666666;fontColor=#333333;fontStyle=1" parent="JdqZie4KPndp9T757h1O-266" vertex="1">
          <mxGeometry width="170" height="30" as="geometry" />
        </mxCell>
        <mxCell id="JdqZie4KPndp9T757h1O-268" value="" style="sketch=0;html=1;dashed=0;whitespace=wrap;fillColor=#2875E2;strokeColor=#ffffff;points=[[0.005,0.63,0],[0.1,0.2,0],[0.9,0.2,0],[0.5,0,0],[0.995,0.63,0],[0.72,0.99,0],[0.5,1,0],[0.28,0.99,0]];verticalLabelPosition=bottom;align=center;verticalAlign=top;shape=mxgraph.kubernetes.icon;prIcon=svc;fontColor=#000000;aspect=fixed;" parent="JdqZie4KPndp9T757h1O-266" vertex="1">
          <mxGeometry x="142" y="3" width="25" height="24" as="geometry" />
        </mxCell>
        <mxCell id="JdqZie4KPndp9T757h1O-269" value="cip.plex" style="rounded=0;whiteSpace=wrap;html=1;fontColor=#000000;verticalAlign=top;" parent="JdqZie4KPndp9T757h1O-266" vertex="1">
          <mxGeometry y="30" width="170" height="32" as="geometry" />
        </mxCell>
        <mxCell id="JdqZie4KPndp9T757h1O-270" value="Target port" style="rounded=0;whiteSpace=wrap;html=1;fontColor=#000000;verticalAlign=top;align=left;" parent="JdqZie4KPndp9T757h1O-266" vertex="1">
          <mxGeometry y="62" width="90" height="24" as="geometry" />
        </mxCell>
        <mxCell id="JdqZie4KPndp9T757h1O-271" value="32400" style="rounded=0;whiteSpace=wrap;html=1;fontColor=#000000;verticalAlign=top;" parent="JdqZie4KPndp9T757h1O-266" vertex="1">
          <mxGeometry x="90" y="62" width="80" height="24" as="geometry" />
        </mxCell>
        <mxCell id="JdqZie4KPndp9T757h1O-272" value="Port" style="rounded=0;whiteSpace=wrap;html=1;fontColor=#000000;verticalAlign=top;align=left;" parent="JdqZie4KPndp9T757h1O-266" vertex="1">
          <mxGeometry y="86" width="90" height="24" as="geometry" />
        </mxCell>
        <mxCell id="JdqZie4KPndp9T757h1O-273" value="32400" style="rounded=0;whiteSpace=wrap;html=1;fontColor=#000000;verticalAlign=top;" parent="JdqZie4KPndp9T757h1O-266" vertex="1">
          <mxGeometry x="90" y="86" width="80" height="24" as="geometry" />
        </mxCell>
        <mxCell id="JdqZie4KPndp9T757h1O-274" style="edgeStyle=orthogonalEdgeStyle;rounded=1;orthogonalLoop=1;jettySize=auto;html=1;entryX=0;entryY=0.5;entryDx=0;entryDy=0;fontSize=9;fontColor=#000000;" parent="JdqZie4KPndp9T757h1O-312" source="JdqZie4KPndp9T757h1O-271" target="JdqZie4KPndp9T757h1O-251" edge="1">
          <mxGeometry relative="1" as="geometry" />
        </mxCell>
        <mxCell id="JdqZie4KPndp9T757h1O-311" value="" style="group" parent="JdqZie4KPndp9T757h1O-312" vertex="1" connectable="0">
          <mxGeometry x="110" y="80" width="170" height="86" as="geometry" />
        </mxCell>
        <mxCell id="JdqZie4KPndp9T757h1O-309" value="Volume" style="rounded=0;whiteSpace=wrap;html=1;fontColor=#000000;verticalAlign=top;align=left;container=0;" parent="JdqZie4KPndp9T757h1O-311" vertex="1">
          <mxGeometry y="62" width="60" height="24" as="geometry" />
        </mxCell>
        <mxCell id="JdqZie4KPndp9T757h1O-310" value="pvc.plex" style="rounded=0;whiteSpace=wrap;html=1;fontColor=#000000;verticalAlign=top;align=left;spacing=2;spacingLeft=2;container=0;" parent="JdqZie4KPndp9T757h1O-311" vertex="1">
          <mxGeometry x="60" y="62" width="110" height="24" as="geometry" />
        </mxCell>
        <mxCell id="JdqZie4KPndp9T757h1O-257" value="deploy.plex" style="rounded=0;whiteSpace=wrap;html=1;fontColor=#000000;verticalAlign=top;container=0;" parent="JdqZie4KPndp9T757h1O-311" vertex="1">
          <mxGeometry y="30" width="170" height="32" as="geometry" />
        </mxCell>
        <mxCell id="JdqZie4KPndp9T757h1O-258" value="Deployment" style="rounded=0;whiteSpace=wrap;html=1;verticalAlign=middle;fillColor=#f5f5f5;strokeColor=#666666;fontColor=#333333;fontStyle=1;container=0;" parent="JdqZie4KPndp9T757h1O-311" vertex="1">
          <mxGeometry width="170" height="30" as="geometry" />
        </mxCell>
        <mxCell id="JdqZie4KPndp9T757h1O-259" value="" style="sketch=0;html=1;dashed=0;whitespace=wrap;fillColor=#2875E2;strokeColor=#ffffff;points=[[0.005,0.63,0],[0.1,0.2,0],[0.9,0.2,0],[0.5,0,0],[0.995,0.63,0],[0.72,0.99,0],[0.5,1,0],[0.28,0.99,0]];verticalLabelPosition=bottom;align=center;verticalAlign=top;shape=mxgraph.kubernetes.icon;prIcon=secret;fontColor=#000000;aspect=fixed;container=0;" parent="JdqZie4KPndp9T757h1O-311" vertex="1">
          <mxGeometry x="142" y="3" width="25" height="24" as="geometry" />
        </mxCell>
        <mxCell id="JdqZie4KPndp9T757h1O-410" style="edgeStyle=orthogonalEdgeStyle;rounded=1;sketch=0;jumpStyle=gap;orthogonalLoop=1;jettySize=auto;html=1;entryX=0;entryY=0.5;entryDx=0;entryDy=0;fontSize=9;fontColor=none;" parent="JdqZie4KPndp9T757h1O-312" source="JdqZie4KPndp9T757h1O-310" target="JdqZie4KPndp9T757h1O-263" edge="1">
          <mxGeometry relative="1" as="geometry" />
        </mxCell>
        <mxCell id="JdqZie4KPndp9T757h1O-1" value="billie-goat" style="rounded=0;whiteSpace=wrap;html=1;verticalAlign=top;" parent="1" vertex="1">
          <mxGeometry x="980" y="500" width="370" height="900" as="geometry" />
        </mxCell>
        <mxCell id="JdqZie4KPndp9T757h1O-2" value="ssh" style="rounded=0;whiteSpace=wrap;html=1;" parent="1" vertex="1">
          <mxGeometry x="1230" y="1310" width="120" height="60" as="geometry" />
        </mxCell>
        <mxCell id="JdqZie4KPndp9T757h1O-3" value="22" style="rounded=0;whiteSpace=wrap;html=1;" parent="1" vertex="1">
          <mxGeometry x="1350" y="1340" width="60" height="30" as="geometry" />
        </mxCell>
        <mxCell id="JdqZie4KPndp9T757h1O-4" value="Port" style="rounded=0;whiteSpace=wrap;html=1;" parent="1" vertex="1">
          <mxGeometry x="1350" y="1310" width="60" height="30" as="geometry" />
        </mxCell>
        <mxCell id="JdqZie4KPndp9T757h1O-5" value="Docker" style="rounded=0;whiteSpace=wrap;html=1;verticalAlign=top;" parent="1" vertex="1">
          <mxGeometry x="1000" y="540" width="350" height="740" as="geometry" />
        </mxCell>
        <mxCell id="JdqZie4KPndp9T757h1O-6" value="" style="shape=image;html=1;verticalAlign=top;verticalLabelPosition=bottom;labelBackgroundColor=#ffffff;imageAspect=0;aspect=fixed;image=https://cdn1.iconfinder.com/data/icons/unicons-line-vol-3/24/docker-128.png" parent="1" vertex="1">
          <mxGeometry x="1322.5" y="540" width="27.5" height="27.5" as="geometry" />
        </mxCell>
        <mxCell id="JdqZie4KPndp9T757h1O-7" value="Volumes" style="rounded=0;whiteSpace=wrap;html=1;verticalAlign=top;" parent="1" vertex="1">
          <mxGeometry x="1020" y="570" width="170" height="660" as="geometry" />
        </mxCell>
        <mxCell id="JdqZie4KPndp9T757h1O-21" value="IPV4 Address" style="rounded=0;whiteSpace=wrap;html=1;" parent="1" vertex="1">
          <mxGeometry x="980" y="1400" width="250" height="30" as="geometry" />
        </mxCell>
        <mxCell id="JdqZie4KPndp9T757h1O-22" value="192.168.0.2" style="rounded=0;whiteSpace=wrap;html=1;" parent="1" vertex="1">
          <mxGeometry x="1230" y="1400" width="120" height="30" as="geometry" />
        </mxCell>
        <mxCell id="JdqZie4KPndp9T757h1O-32" value="step" style="rounded=0;whiteSpace=wrap;html=1;" parent="1" vertex="1">
          <mxGeometry x="1035" y="985" width="100" height="30" as="geometry" />
        </mxCell>
        <mxCell id="JdqZie4KPndp9T757h1O-48" style="edgeStyle=orthogonalEdgeStyle;rounded=0;orthogonalLoop=1;jettySize=auto;html=1;exitX=0;exitY=0.5;exitDx=0;exitDy=0;" parent="1" source="JdqZie4KPndp9T757h1O-49" target="JdqZie4KPndp9T757h1O-32" edge="1">
          <mxGeometry relative="1" as="geometry" />
        </mxCell>
        <mxCell id="JdqZie4KPndp9T757h1O-49" value="smallstep" style="rounded=0;whiteSpace=wrap;html=1;" parent="1" vertex="1">
          <mxGeometry x="1230" y="970" width="120" height="60" as="geometry" />
        </mxCell>
        <mxCell id="JdqZie4KPndp9T757h1O-50" value="Port" style="rounded=0;whiteSpace=wrap;html=1;" parent="1" vertex="1">
          <mxGeometry x="1350" y="970" width="60" height="30" as="geometry" />
        </mxCell>
        <mxCell id="JdqZie4KPndp9T757h1O-51" value="4443" style="rounded=0;whiteSpace=wrap;html=1;" parent="1" vertex="1">
          <mxGeometry x="1350" y="1000" width="60" height="30" as="geometry" />
        </mxCell>
        <mxCell id="JdqZie4KPndp9T757h1O-62" value="step-cli" style="rounded=0;whiteSpace=wrap;html=1;" parent="1" vertex="1">
          <mxGeometry x="1000" y="1310" width="120" height="60" as="geometry" />
        </mxCell>
        <mxCell id="JdqZie4KPndp9T757h1O-118" style="edgeStyle=orthogonalEdgeStyle;rounded=1;orthogonalLoop=1;jettySize=auto;html=1;entryX=0;entryY=0.5;entryDx=0;entryDy=0;fontColor=#000000;jumpStyle=gap;" parent="1" source="JdqZie4KPndp9T757h1O-114" target="JdqZie4KPndp9T757h1O-105" edge="1">
          <mxGeometry relative="1" as="geometry" />
        </mxCell>
        <mxCell id="JdqZie4KPndp9T757h1O-182" value="q" style="group" parent="1" vertex="1" connectable="0">
          <mxGeometry x="-460" y="132" width="170" height="158" as="geometry" />
        </mxCell>
        <mxCell id="JdqZie4KPndp9T757h1O-110" value="Ingress" style="rounded=0;whiteSpace=wrap;html=1;verticalAlign=middle;fillColor=#f5f5f5;strokeColor=#666666;fontColor=#333333;fontStyle=1" parent="JdqZie4KPndp9T757h1O-182" vertex="1">
          <mxGeometry width="170" height="30" as="geometry" />
        </mxCell>
        <mxCell id="JdqZie4KPndp9T757h1O-63" value="" style="sketch=0;html=1;dashed=0;whitespace=wrap;fillColor=#2875E2;strokeColor=#ffffff;points=[[0.005,0.63,0],[0.1,0.2,0],[0.9,0.2,0],[0.5,0,0],[0.995,0.63,0],[0.72,0.99,0],[0.5,1,0],[0.28,0.99,0]];verticalLabelPosition=bottom;align=center;verticalAlign=top;shape=mxgraph.kubernetes.icon;prIcon=ing;aspect=fixed;" parent="JdqZie4KPndp9T757h1O-182" vertex="1">
          <mxGeometry x="142" y="3" width="25" height="24" as="geometry" />
        </mxCell>
        <mxCell id="JdqZie4KPndp9T757h1O-112" value="ingress.xyz" style="rounded=0;whiteSpace=wrap;html=1;fontColor=#000000;verticalAlign=top;" parent="JdqZie4KPndp9T757h1O-182" vertex="1">
          <mxGeometry y="30" width="170" height="32" as="geometry" />
        </mxCell>
        <mxCell id="JdqZie4KPndp9T757h1O-113" value="host" style="rounded=0;whiteSpace=wrap;html=1;fontColor=#000000;verticalAlign=top;align=left;" parent="JdqZie4KPndp9T757h1O-182" vertex="1">
          <mxGeometry y="62" width="40" height="96" as="geometry" />
        </mxCell>
        <mxCell id="JdqZie4KPndp9T757h1O-114" value="heimdall.internal" style="rounded=0;whiteSpace=wrap;html=1;fontColor=#000000;verticalAlign=top;" parent="JdqZie4KPndp9T757h1O-182" vertex="1">
          <mxGeometry x="40" y="62" width="130" height="24" as="geometry" />
        </mxCell>
        <mxCell id="JdqZie4KPndp9T757h1O-115" value="plex.internal" style="rounded=0;whiteSpace=wrap;html=1;fontColor=#000000;verticalAlign=top;" parent="JdqZie4KPndp9T757h1O-182" vertex="1">
          <mxGeometry x="40" y="86" width="130" height="24" as="geometry" />
        </mxCell>
        <mxCell id="JdqZie4KPndp9T757h1O-116" value="pihole.internal" style="rounded=0;whiteSpace=wrap;html=1;fontColor=#000000;verticalAlign=top;" parent="JdqZie4KPndp9T757h1O-182" vertex="1">
          <mxGeometry x="40" y="110" width="130" height="24" as="geometry" />
        </mxCell>
        <mxCell id="JdqZie4KPndp9T757h1O-117" value="ghost.internal" style="rounded=0;whiteSpace=wrap;html=1;fontColor=#000000;verticalAlign=top;" parent="JdqZie4KPndp9T757h1O-182" vertex="1">
          <mxGeometry x="40" y="134" width="130" height="24" as="geometry" />
        </mxCell>
        <mxCell id="JdqZie4KPndp9T757h1O-275" style="edgeStyle=orthogonalEdgeStyle;rounded=1;orthogonalLoop=1;jettySize=auto;html=1;entryX=0;entryY=0.5;entryDx=0;entryDy=0;fontSize=9;fontColor=#000000;jumpStyle=gap;" parent="1" source="JdqZie4KPndp9T757h1O-115" target="JdqZie4KPndp9T757h1O-272" edge="1">
          <mxGeometry relative="1" as="geometry">
            <Array as="points">
              <mxPoint x="-240" y="230" />
              <mxPoint x="-240" y="1358" />
            </Array>
          </mxGeometry>
        </mxCell>
        <mxCell id="JdqZie4KPndp9T757h1O-284" style="edgeStyle=orthogonalEdgeStyle;rounded=1;orthogonalLoop=1;jettySize=auto;html=1;entryX=0;entryY=0.5;entryDx=0;entryDy=0;fontSize=9;fontColor=#000000;jumpStyle=gap;" parent="1" target="JdqZie4KPndp9T757h1O-192" edge="1">
          <mxGeometry relative="1" as="geometry">
            <mxPoint x="-290" y="278.0588235294117" as="sourcePoint" />
            <mxPoint x="-230" y="535.9999999999995" as="targetPoint" />
            <Array as="points">
              <mxPoint x="-260" y="278" />
              <mxPoint x="-260" y="1778" />
            </Array>
          </mxGeometry>
        </mxCell>
        <mxCell id="JdqZie4KPndp9T757h1O-286" value="" style="group" parent="1" vertex="1" connectable="0">
          <mxGeometry x="940" y="40" width="170" height="110" as="geometry" />
        </mxCell>
        <mxCell id="JdqZie4KPndp9T757h1O-95" value="billie-goat" style="rounded=0;whiteSpace=wrap;html=1;fontColor=#000000;verticalAlign=top;" parent="JdqZie4KPndp9T757h1O-286" vertex="1">
          <mxGeometry y="30" width="170" height="80" as="geometry" />
        </mxCell>
        <mxCell id="JdqZie4KPndp9T757h1O-96" value="Node" style="rounded=0;whiteSpace=wrap;html=1;verticalAlign=middle;fillColor=#f5f5f5;strokeColor=#666666;fontColor=#333333;fontStyle=1" parent="JdqZie4KPndp9T757h1O-286" vertex="1">
          <mxGeometry width="170" height="30" as="geometry" />
        </mxCell>
        <mxCell id="JdqZie4KPndp9T757h1O-94" value="" style="sketch=0;html=1;dashed=0;whitespace=wrap;fillColor=#2875E2;strokeColor=#ffffff;points=[[0.005,0.63,0],[0.1,0.2,0],[0.9,0.2,0],[0.5,0,0],[0.995,0.63,0],[0.72,0.99,0],[0.5,1,0],[0.28,0.99,0]];verticalLabelPosition=bottom;align=center;verticalAlign=top;shape=mxgraph.kubernetes.icon;prIcon=node;fontColor=#000000;aspect=fixed;" parent="JdqZie4KPndp9T757h1O-286" vertex="1">
          <mxGeometry x="142" y="3" width="25" height="24" as="geometry" />
        </mxCell>
        <mxCell id="JdqZie4KPndp9T757h1O-313" value="Namespace" style="swimlane;whiteSpace=wrap;html=1;fontSize=9;fontColor=#000000;container=0;collapsible=0;rounded=1;swimlaneLine=0;dashed=1;shadow=0;dashPattern=8 8;fillStyle=auto;fillColor=none;strokeColor=#4D4D4D;" parent="1" vertex="1">
          <mxGeometry x="-200" y="1520" width="960" height="790" as="geometry" />
        </mxCell>
        <mxCell id="JdqZie4KPndp9T757h1O-174" value="" style="group" parent="JdqZie4KPndp9T757h1O-313" vertex="1" connectable="0">
          <mxGeometry x="160" y="412" width="170" height="62" as="geometry" />
        </mxCell>
        <mxCell id="JdqZie4KPndp9T757h1O-175" value="deploy.ghost.db" style="rounded=0;whiteSpace=wrap;html=1;fontColor=#000000;verticalAlign=top;" parent="JdqZie4KPndp9T757h1O-174" vertex="1">
          <mxGeometry y="30" width="170" height="32" as="geometry" />
        </mxCell>
        <mxCell id="JdqZie4KPndp9T757h1O-176" value="Deployment" style="rounded=0;whiteSpace=wrap;html=1;verticalAlign=middle;fillColor=#f5f5f5;strokeColor=#666666;fontColor=#333333;fontStyle=1" parent="JdqZie4KPndp9T757h1O-174" vertex="1">
          <mxGeometry width="170" height="30" as="geometry" />
        </mxCell>
        <mxCell id="JdqZie4KPndp9T757h1O-177" value="" style="sketch=0;html=1;dashed=0;whitespace=wrap;fillColor=#2875E2;strokeColor=#ffffff;points=[[0.005,0.63,0],[0.1,0.2,0],[0.9,0.2,0],[0.5,0,0],[0.995,0.63,0],[0.72,0.99,0],[0.5,1,0],[0.28,0.99,0]];verticalLabelPosition=bottom;align=center;verticalAlign=top;shape=mxgraph.kubernetes.icon;prIcon=secret;fontColor=#000000;aspect=fixed;" parent="JdqZie4KPndp9T757h1O-174" vertex="1">
          <mxGeometry x="142" y="3" width="25" height="24" as="geometry" />
        </mxCell>
        <mxCell id="JdqZie4KPndp9T757h1O-186" value="" style="group" parent="JdqZie4KPndp9T757h1O-313" vertex="1" connectable="0">
          <mxGeometry x="110" y="160" width="170" height="110" as="geometry" />
        </mxCell>
        <mxCell id="JdqZie4KPndp9T757h1O-187" value="Service" style="rounded=0;whiteSpace=wrap;html=1;verticalAlign=middle;fillColor=#f5f5f5;strokeColor=#666666;fontColor=#333333;fontStyle=1" parent="JdqZie4KPndp9T757h1O-186" vertex="1">
          <mxGeometry width="170" height="30" as="geometry" />
        </mxCell>
        <mxCell id="JdqZie4KPndp9T757h1O-188" value="" style="sketch=0;html=1;dashed=0;whitespace=wrap;fillColor=#2875E2;strokeColor=#ffffff;points=[[0.005,0.63,0],[0.1,0.2,0],[0.9,0.2,0],[0.5,0,0],[0.995,0.63,0],[0.72,0.99,0],[0.5,1,0],[0.28,0.99,0]];verticalLabelPosition=bottom;align=center;verticalAlign=top;shape=mxgraph.kubernetes.icon;prIcon=svc;fontColor=#000000;aspect=fixed;" parent="JdqZie4KPndp9T757h1O-186" vertex="1">
          <mxGeometry x="142" y="3" width="25" height="24" as="geometry" />
        </mxCell>
        <mxCell id="JdqZie4KPndp9T757h1O-189" value="cip.ghost.web" style="rounded=0;whiteSpace=wrap;html=1;fontColor=#000000;verticalAlign=top;" parent="JdqZie4KPndp9T757h1O-186" vertex="1">
          <mxGeometry y="30" width="170" height="32" as="geometry" />
        </mxCell>
        <mxCell id="JdqZie4KPndp9T757h1O-190" value="Target port" style="rounded=0;whiteSpace=wrap;html=1;fontColor=#000000;verticalAlign=top;align=left;" parent="JdqZie4KPndp9T757h1O-186" vertex="1">
          <mxGeometry y="62" width="90" height="24" as="geometry" />
        </mxCell>
        <mxCell id="JdqZie4KPndp9T757h1O-191" value="2368" style="rounded=0;whiteSpace=wrap;html=1;fontColor=#000000;verticalAlign=top;" parent="JdqZie4KPndp9T757h1O-186" vertex="1">
          <mxGeometry x="90" y="62" width="80" height="24" as="geometry" />
        </mxCell>
        <mxCell id="JdqZie4KPndp9T757h1O-192" value="Port" style="rounded=0;whiteSpace=wrap;html=1;fontColor=#000000;verticalAlign=top;align=left;" parent="JdqZie4KPndp9T757h1O-186" vertex="1">
          <mxGeometry y="86" width="90" height="24" as="geometry" />
        </mxCell>
        <mxCell id="JdqZie4KPndp9T757h1O-193" value="443" style="rounded=0;whiteSpace=wrap;html=1;fontColor=#000000;verticalAlign=top;" parent="JdqZie4KPndp9T757h1O-186" vertex="1">
          <mxGeometry x="90" y="86" width="80" height="24" as="geometry" />
        </mxCell>
        <mxCell id="JdqZie4KPndp9T757h1O-194" style="edgeStyle=orthogonalEdgeStyle;rounded=0;orthogonalLoop=1;jettySize=auto;html=1;exitX=1;exitY=0.25;exitDx=0;exitDy=0;entryX=0;entryY=0.5;entryDx=0;entryDy=0;fontColor=#000000;" parent="JdqZie4KPndp9T757h1O-313" source="JdqZie4KPndp9T757h1O-191" target="JdqZie4KPndp9T757h1O-172" edge="1">
          <mxGeometry relative="1" as="geometry" />
        </mxCell>
        <mxCell id="JdqZie4KPndp9T757h1O-205" value="" style="group" parent="JdqZie4KPndp9T757h1O-313" vertex="1" connectable="0">
          <mxGeometry x="150" y="596" width="170" height="110" as="geometry" />
        </mxCell>
        <mxCell id="JdqZie4KPndp9T757h1O-206" value="Service" style="rounded=0;whiteSpace=wrap;html=1;verticalAlign=middle;fillColor=#f5f5f5;strokeColor=#666666;fontColor=#333333;fontStyle=1" parent="JdqZie4KPndp9T757h1O-205" vertex="1">
          <mxGeometry width="170" height="30" as="geometry" />
        </mxCell>
        <mxCell id="JdqZie4KPndp9T757h1O-207" value="" style="sketch=0;html=1;dashed=0;whitespace=wrap;fillColor=#2875E2;strokeColor=#ffffff;points=[[0.005,0.63,0],[0.1,0.2,0],[0.9,0.2,0],[0.5,0,0],[0.995,0.63,0],[0.72,0.99,0],[0.5,1,0],[0.28,0.99,0]];verticalLabelPosition=bottom;align=center;verticalAlign=top;shape=mxgraph.kubernetes.icon;prIcon=svc;fontColor=#000000;aspect=fixed;" parent="JdqZie4KPndp9T757h1O-205" vertex="1">
          <mxGeometry x="142" y="3" width="25" height="24" as="geometry" />
        </mxCell>
        <mxCell id="JdqZie4KPndp9T757h1O-208" value="cip.ghost.db" style="rounded=0;whiteSpace=wrap;html=1;fontColor=#000000;verticalAlign=top;" parent="JdqZie4KPndp9T757h1O-205" vertex="1">
          <mxGeometry y="30" width="170" height="32" as="geometry" />
        </mxCell>
        <mxCell id="JdqZie4KPndp9T757h1O-209" value="Target port" style="rounded=0;whiteSpace=wrap;html=1;fontColor=#000000;verticalAlign=top;align=left;" parent="JdqZie4KPndp9T757h1O-205" vertex="1">
          <mxGeometry y="62" width="90" height="24" as="geometry" />
        </mxCell>
        <mxCell id="JdqZie4KPndp9T757h1O-210" value="3306" style="rounded=0;whiteSpace=wrap;html=1;fontColor=#000000;verticalAlign=top;" parent="JdqZie4KPndp9T757h1O-205" vertex="1">
          <mxGeometry x="90" y="62" width="80" height="24" as="geometry" />
        </mxCell>
        <mxCell id="JdqZie4KPndp9T757h1O-211" value="Port" style="rounded=0;whiteSpace=wrap;html=1;fontColor=#000000;verticalAlign=top;align=left;" parent="JdqZie4KPndp9T757h1O-205" vertex="1">
          <mxGeometry y="86" width="90" height="24" as="geometry" />
        </mxCell>
        <mxCell id="JdqZie4KPndp9T757h1O-212" value="3306" style="rounded=0;whiteSpace=wrap;html=1;fontColor=#000000;verticalAlign=top;" parent="JdqZie4KPndp9T757h1O-205" vertex="1">
          <mxGeometry x="90" y="86" width="80" height="24" as="geometry" />
        </mxCell>
        <mxCell id="JdqZie4KPndp9T757h1O-195" value="env" style="rounded=0;whiteSpace=wrap;html=1;fontColor=#000000;verticalAlign=middle;align=left;container=0;" parent="JdqZie4KPndp9T757h1O-313" vertex="1">
          <mxGeometry x="365" y="240" width="35" height="96" as="geometry" />
        </mxCell>
        <mxCell id="JdqZie4KPndp9T757h1O-196" value="database__connection__user" style="rounded=0;whiteSpace=wrap;html=1;fontColor=#000000;verticalAlign=top;fontSize=9;container=0;align=left;" parent="JdqZie4KPndp9T757h1O-313" vertex="1">
          <mxGeometry x="400" y="240" width="155" height="24" as="geometry" />
        </mxCell>
        <mxCell id="JdqZie4KPndp9T757h1O-169" value="name: &lt;span style=&quot;white-space: pre;&quot;&gt; &lt;/span&gt;pod.ghost.web&lt;br&gt;image: &lt;span style=&quot;white-space: pre;&quot;&gt; &lt;/span&gt;ghost" style="rounded=0;whiteSpace=wrap;html=1;fontColor=#000000;verticalAlign=top;align=left;" parent="JdqZie4KPndp9T757h1O-313" vertex="1">
          <mxGeometry x="365" y="164" width="190" height="52" as="geometry" />
        </mxCell>
        <mxCell id="JdqZie4KPndp9T757h1O-170" value="Pod" style="rounded=0;whiteSpace=wrap;html=1;verticalAlign=middle;fillColor=#f5f5f5;strokeColor=#666666;fontColor=#333333;fontStyle=1" parent="JdqZie4KPndp9T757h1O-313" vertex="1">
          <mxGeometry x="365" y="134" width="190" height="30" as="geometry" />
        </mxCell>
        <mxCell id="JdqZie4KPndp9T757h1O-171" value="" style="sketch=0;html=1;dashed=0;whitespace=wrap;fillColor=#2875E2;strokeColor=#ffffff;points=[[0.005,0.63,0],[0.1,0.2,0],[0.9,0.2,0],[0.5,0,0],[0.995,0.63,0],[0.72,0.99,0],[0.5,1,0],[0.28,0.99,0]];verticalLabelPosition=bottom;align=center;verticalAlign=top;shape=mxgraph.kubernetes.icon;prIcon=pod;fontColor=#000000;aspect=fixed;" parent="JdqZie4KPndp9T757h1O-313" vertex="1">
          <mxGeometry x="527" y="137" width="25" height="24" as="geometry" />
        </mxCell>
        <mxCell id="JdqZie4KPndp9T757h1O-172" value="Port" style="rounded=0;whiteSpace=wrap;html=1;fontColor=#000000;verticalAlign=top;align=left;" parent="JdqZie4KPndp9T757h1O-313" vertex="1">
          <mxGeometry x="365" y="216" width="90" height="24" as="geometry" />
        </mxCell>
        <mxCell id="JdqZie4KPndp9T757h1O-173" value="2368" style="rounded=0;whiteSpace=wrap;html=1;fontColor=#000000;verticalAlign=top;" parent="JdqZie4KPndp9T757h1O-313" vertex="1">
          <mxGeometry x="455" y="216" width="100" height="24" as="geometry" />
        </mxCell>
        <mxCell id="JdqZie4KPndp9T757h1O-200" value="database__connection__password" style="rounded=0;whiteSpace=wrap;html=1;fontColor=#000000;verticalAlign=top;fontSize=9;container=0;align=left;" parent="JdqZie4KPndp9T757h1O-313" vertex="1">
          <mxGeometry x="400" y="264" width="155" height="24" as="geometry" />
        </mxCell>
        <mxCell id="JdqZie4KPndp9T757h1O-201" value="database__connection__database" style="rounded=0;whiteSpace=wrap;html=1;fontColor=#000000;verticalAlign=top;fontSize=9;container=0;align=left;" parent="JdqZie4KPndp9T757h1O-313" vertex="1">
          <mxGeometry x="400" y="288" width="155" height="24" as="geometry" />
        </mxCell>
        <mxCell id="JdqZie4KPndp9T757h1O-231" style="edgeStyle=orthogonalEdgeStyle;rounded=1;orthogonalLoop=1;jettySize=auto;html=1;entryX=0;entryY=0.5;entryDx=0;entryDy=0;fontSize=9;fontColor=#000000;exitX=0.5;exitY=1;exitDx=0;exitDy=0;" parent="JdqZie4KPndp9T757h1O-313" source="JdqZie4KPndp9T757h1O-225" target="JdqZie4KPndp9T757h1O-211" edge="1">
          <mxGeometry relative="1" as="geometry">
            <Array as="points">
              <mxPoint x="478" y="382" />
              <mxPoint x="130" y="382" />
              <mxPoint x="130" y="694" />
            </Array>
          </mxGeometry>
        </mxCell>
        <mxCell id="JdqZie4KPndp9T757h1O-225" value="database__connection__host" style="rounded=0;whiteSpace=wrap;html=1;fontColor=#000000;verticalAlign=top;fontSize=9;container=0;align=left;" parent="JdqZie4KPndp9T757h1O-313" vertex="1">
          <mxGeometry x="400" y="312" width="155" height="24" as="geometry" />
        </mxCell>
        <mxCell id="JdqZie4KPndp9T757h1O-229" value="" style="group" parent="JdqZie4KPndp9T757h1O-313" vertex="1" connectable="0">
          <mxGeometry x="720" y="332" width="170" height="134" as="geometry" />
        </mxCell>
        <mxCell id="JdqZie4KPndp9T757h1O-129" value="secrets.ghost" style="rounded=0;whiteSpace=wrap;html=1;fontColor=#000000;verticalAlign=top;" parent="JdqZie4KPndp9T757h1O-229" vertex="1">
          <mxGeometry y="30" width="170" height="32" as="geometry" />
        </mxCell>
        <mxCell id="JdqZie4KPndp9T757h1O-128" value="Secret" style="rounded=0;whiteSpace=wrap;html=1;verticalAlign=middle;fillColor=#f5f5f5;strokeColor=#666666;fontColor=#333333;fontStyle=1" parent="JdqZie4KPndp9T757h1O-229" vertex="1">
          <mxGeometry width="170" height="30" as="geometry" />
        </mxCell>
        <mxCell id="JdqZie4KPndp9T757h1O-130" value="" style="sketch=0;html=1;dashed=0;whitespace=wrap;fillColor=#2875E2;strokeColor=#ffffff;points=[[0.005,0.63,0],[0.1,0.2,0],[0.9,0.2,0],[0.5,0,0],[0.995,0.63,0],[0.72,0.99,0],[0.5,1,0],[0.28,0.99,0]];verticalLabelPosition=bottom;align=center;verticalAlign=top;shape=mxgraph.kubernetes.icon;prIcon=secret;fontColor=#000000;aspect=fixed;" parent="JdqZie4KPndp9T757h1O-229" vertex="1">
          <mxGeometry x="142" y="3" width="25" height="24" as="geometry" />
        </mxCell>
        <mxCell id="JdqZie4KPndp9T757h1O-131" value="key" style="rounded=0;whiteSpace=wrap;html=1;align=left;" parent="JdqZie4KPndp9T757h1O-229" vertex="1">
          <mxGeometry y="62" width="50" height="72" as="geometry" />
        </mxCell>
        <mxCell id="JdqZie4KPndp9T757h1O-133" value="database-user" style="rounded=0;whiteSpace=wrap;html=1;align=left;" parent="JdqZie4KPndp9T757h1O-229" vertex="1">
          <mxGeometry x="50" y="62" width="120" height="24" as="geometry" />
        </mxCell>
        <mxCell id="JdqZie4KPndp9T757h1O-152" value="database-password" style="rounded=0;whiteSpace=wrap;html=1;align=left;" parent="JdqZie4KPndp9T757h1O-229" vertex="1">
          <mxGeometry x="50" y="86" width="120" height="24" as="geometry" />
        </mxCell>
        <mxCell id="JdqZie4KPndp9T757h1O-228" value="database-name" style="rounded=0;whiteSpace=wrap;html=1;align=left;" parent="JdqZie4KPndp9T757h1O-229" vertex="1">
          <mxGeometry x="50" y="110" width="120" height="24" as="geometry" />
        </mxCell>
        <mxCell id="JdqZie4KPndp9T757h1O-203" style="edgeStyle=orthogonalEdgeStyle;rounded=1;orthogonalLoop=1;jettySize=auto;html=1;entryX=0;entryY=0.5;entryDx=0;entryDy=0;fontSize=9;fontColor=#000000;" parent="JdqZie4KPndp9T757h1O-313" source="JdqZie4KPndp9T757h1O-196" target="JdqZie4KPndp9T757h1O-131" edge="1">
          <mxGeometry relative="1" as="geometry" />
        </mxCell>
        <mxCell id="JdqZie4KPndp9T757h1O-204" style="edgeStyle=orthogonalEdgeStyle;rounded=1;orthogonalLoop=1;jettySize=auto;html=1;fontSize=9;fontColor=#000000;entryX=0;entryY=0.5;entryDx=0;entryDy=0;" parent="JdqZie4KPndp9T757h1O-313" source="JdqZie4KPndp9T757h1O-200" target="JdqZie4KPndp9T757h1O-131" edge="1">
          <mxGeometry relative="1" as="geometry" />
        </mxCell>
        <mxCell id="JdqZie4KPndp9T757h1O-226" style="edgeStyle=orthogonalEdgeStyle;rounded=1;orthogonalLoop=1;jettySize=auto;html=1;entryX=0;entryY=0.5;entryDx=0;entryDy=0;fontSize=9;fontColor=#000000;" parent="JdqZie4KPndp9T757h1O-313" source="JdqZie4KPndp9T757h1O-201" target="JdqZie4KPndp9T757h1O-131" edge="1">
          <mxGeometry relative="1" as="geometry" />
        </mxCell>
        <mxCell id="JdqZie4KPndp9T757h1O-230" value="" style="group" parent="JdqZie4KPndp9T757h1O-313" vertex="1" connectable="0">
          <mxGeometry x="390" y="532" width="190" height="178" as="geometry" />
        </mxCell>
        <mxCell id="JdqZie4KPndp9T757h1O-213" value="env" style="rounded=0;whiteSpace=wrap;html=1;fontColor=#000000;verticalAlign=middle;align=left;container=0;" parent="JdqZie4KPndp9T757h1O-230" vertex="1">
          <mxGeometry y="106" width="35" height="72" as="geometry" />
        </mxCell>
        <mxCell id="JdqZie4KPndp9T757h1O-214" value="MYSQL_DATABASE" style="rounded=0;whiteSpace=wrap;html=1;fontColor=#000000;verticalAlign=top;fontSize=9;container=0;align=left;" parent="JdqZie4KPndp9T757h1O-230" vertex="1">
          <mxGeometry x="35" y="106" width="155" height="24" as="geometry" />
        </mxCell>
        <mxCell id="JdqZie4KPndp9T757h1O-215" value="name: &lt;span style=&quot;white-space: pre;&quot;&gt; &lt;/span&gt;pod.ghost.db&lt;br&gt;image: &lt;span style=&quot;white-space: pre;&quot;&gt; &lt;/span&gt;mariadb" style="rounded=0;whiteSpace=wrap;html=1;fontColor=#000000;verticalAlign=top;align=left;" parent="JdqZie4KPndp9T757h1O-230" vertex="1">
          <mxGeometry y="30" width="190" height="52" as="geometry" />
        </mxCell>
        <mxCell id="JdqZie4KPndp9T757h1O-216" value="Pod" style="rounded=0;whiteSpace=wrap;html=1;verticalAlign=middle;fillColor=#f5f5f5;strokeColor=#666666;fontColor=#333333;fontStyle=1" parent="JdqZie4KPndp9T757h1O-230" vertex="1">
          <mxGeometry width="190" height="30" as="geometry" />
        </mxCell>
        <mxCell id="JdqZie4KPndp9T757h1O-217" value="" style="sketch=0;html=1;dashed=0;whitespace=wrap;fillColor=#2875E2;strokeColor=#ffffff;points=[[0.005,0.63,0],[0.1,0.2,0],[0.9,0.2,0],[0.5,0,0],[0.995,0.63,0],[0.72,0.99,0],[0.5,1,0],[0.28,0.99,0]];verticalLabelPosition=bottom;align=center;verticalAlign=top;shape=mxgraph.kubernetes.icon;prIcon=pod;fontColor=#000000;aspect=fixed;" parent="JdqZie4KPndp9T757h1O-230" vertex="1">
          <mxGeometry x="162" y="3" width="25" height="24" as="geometry" />
        </mxCell>
        <mxCell id="JdqZie4KPndp9T757h1O-218" value="Port" style="rounded=0;whiteSpace=wrap;html=1;fontColor=#000000;verticalAlign=top;align=left;" parent="JdqZie4KPndp9T757h1O-230" vertex="1">
          <mxGeometry y="82" width="90" height="24" as="geometry" />
        </mxCell>
        <mxCell id="JdqZie4KPndp9T757h1O-219" value="3306" style="rounded=0;whiteSpace=wrap;html=1;fontColor=#000000;verticalAlign=top;" parent="JdqZie4KPndp9T757h1O-230" vertex="1">
          <mxGeometry x="90" y="82" width="100" height="24" as="geometry" />
        </mxCell>
        <mxCell id="JdqZie4KPndp9T757h1O-220" value="MYSQL_USER" style="rounded=0;whiteSpace=wrap;html=1;fontColor=#000000;verticalAlign=top;fontSize=9;container=0;align=left;" parent="JdqZie4KPndp9T757h1O-230" vertex="1">
          <mxGeometry x="35" y="129.75" width="155" height="24" as="geometry" />
        </mxCell>
        <mxCell id="JdqZie4KPndp9T757h1O-221" value="MYSQL_PASSWORD" style="rounded=0;whiteSpace=wrap;html=1;fontColor=#000000;verticalAlign=top;fontSize=9;container=0;align=left;" parent="JdqZie4KPndp9T757h1O-230" vertex="1">
          <mxGeometry x="35" y="153.75" width="155" height="24" as="geometry" />
        </mxCell>
        <mxCell id="JdqZie4KPndp9T757h1O-227" style="edgeStyle=orthogonalEdgeStyle;rounded=1;orthogonalLoop=1;jettySize=auto;html=1;entryX=0;entryY=0.5;entryDx=0;entryDy=0;fontSize=9;fontColor=#000000;" parent="JdqZie4KPndp9T757h1O-313" source="JdqZie4KPndp9T757h1O-214" target="JdqZie4KPndp9T757h1O-131" edge="1">
          <mxGeometry relative="1" as="geometry" />
        </mxCell>
        <mxCell id="JdqZie4KPndp9T757h1O-223" style="edgeStyle=orthogonalEdgeStyle;rounded=1;orthogonalLoop=1;jettySize=auto;html=1;entryX=0;entryY=0.5;entryDx=0;entryDy=0;fontSize=9;fontColor=#000000;" parent="JdqZie4KPndp9T757h1O-313" source="JdqZie4KPndp9T757h1O-220" target="JdqZie4KPndp9T757h1O-131" edge="1">
          <mxGeometry relative="1" as="geometry" />
        </mxCell>
        <mxCell id="JdqZie4KPndp9T757h1O-224" style="edgeStyle=orthogonalEdgeStyle;rounded=1;orthogonalLoop=1;jettySize=auto;html=1;exitX=1;exitY=0.5;exitDx=0;exitDy=0;entryX=0;entryY=0.5;entryDx=0;entryDy=0;fontSize=9;fontColor=#000000;" parent="JdqZie4KPndp9T757h1O-313" source="JdqZie4KPndp9T757h1O-221" target="JdqZie4KPndp9T757h1O-131" edge="1">
          <mxGeometry relative="1" as="geometry" />
        </mxCell>
        <mxCell id="JdqZie4KPndp9T757h1O-232" style="edgeStyle=orthogonalEdgeStyle;rounded=1;orthogonalLoop=1;jettySize=auto;html=1;entryX=0.5;entryY=0;entryDx=0;entryDy=0;fontSize=9;fontColor=#000000;" parent="JdqZie4KPndp9T757h1O-313" source="JdqZie4KPndp9T757h1O-176" target="JdqZie4KPndp9T757h1O-216" edge="1">
          <mxGeometry relative="1" as="geometry" />
        </mxCell>
        <mxCell id="JdqZie4KPndp9T757h1O-233" style="edgeStyle=orthogonalEdgeStyle;rounded=1;orthogonalLoop=1;jettySize=auto;html=1;entryX=0;entryY=0.5;entryDx=0;entryDy=0;fontSize=9;fontColor=#000000;" parent="JdqZie4KPndp9T757h1O-313" source="JdqZie4KPndp9T757h1O-210" target="JdqZie4KPndp9T757h1O-218" edge="1">
          <mxGeometry relative="1" as="geometry" />
        </mxCell>
        <mxCell id="JdqZie4KPndp9T757h1O-242" value="" style="group" parent="JdqZie4KPndp9T757h1O-313" vertex="1" connectable="0">
          <mxGeometry x="590" y="67" width="200" height="62" as="geometry" />
        </mxCell>
        <mxCell id="JdqZie4KPndp9T757h1O-89" value="pvc.ghost.db" style="rounded=0;whiteSpace=wrap;html=1;" parent="JdqZie4KPndp9T757h1O-242" vertex="1">
          <mxGeometry y="30" width="200" height="32" as="geometry" />
        </mxCell>
        <mxCell id="JdqZie4KPndp9T757h1O-235" value="Persistent Volume Claim" style="rounded=0;whiteSpace=wrap;html=1;verticalAlign=middle;fillColor=#f5f5f5;strokeColor=#666666;fontColor=#333333;fontStyle=1" parent="JdqZie4KPndp9T757h1O-242" vertex="1">
          <mxGeometry width="200" height="30" as="geometry" />
        </mxCell>
        <mxCell id="JdqZie4KPndp9T757h1O-82" value="" style="sketch=0;html=1;dashed=0;whitespace=wrap;fillColor=#2875E2;strokeColor=#ffffff;points=[[0.005,0.63,0],[0.1,0.2,0],[0.9,0.2,0],[0.5,0,0],[0.995,0.63,0],[0.72,0.99,0],[0.5,1,0],[0.28,0.99,0]];verticalLabelPosition=bottom;align=center;verticalAlign=top;shape=mxgraph.kubernetes.icon;prIcon=pvc;fontColor=#ffffff;aspect=fixed;" parent="JdqZie4KPndp9T757h1O-242" vertex="1">
          <mxGeometry x="172" y="3" width="25" height="24" as="geometry" />
        </mxCell>
        <mxCell id="JdqZie4KPndp9T757h1O-285" style="edgeStyle=orthogonalEdgeStyle;rounded=1;orthogonalLoop=1;jettySize=auto;html=1;exitX=1;exitY=0.25;exitDx=0;exitDy=0;entryX=0;entryY=0.5;entryDx=0;entryDy=0;fontColor=#000000;" parent="JdqZie4KPndp9T757h1O-313" edge="1">
          <mxGeometry relative="1" as="geometry">
            <mxPoint x="280" y="227.99999999999955" as="sourcePoint" />
            <mxPoint x="364.99999999999955" y="227.99999999999955" as="targetPoint" />
          </mxGeometry>
        </mxCell>
        <mxCell id="JdqZie4KPndp9T757h1O-308" value="" style="group;spacing=4;spacingLeft=1;" parent="JdqZie4KPndp9T757h1O-313" vertex="1" connectable="0">
          <mxGeometry x="160" y="40" width="170" height="86" as="geometry" />
        </mxCell>
        <mxCell id="JdqZie4KPndp9T757h1O-163" value="" style="group" parent="JdqZie4KPndp9T757h1O-308" vertex="1" connectable="0">
          <mxGeometry width="170" height="62" as="geometry" />
        </mxCell>
        <mxCell id="JdqZie4KPndp9T757h1O-164" value="deploy.ghost.web" style="rounded=0;whiteSpace=wrap;html=1;fontColor=#000000;verticalAlign=top;" parent="JdqZie4KPndp9T757h1O-163" vertex="1">
          <mxGeometry y="30" width="170" height="32" as="geometry" />
        </mxCell>
        <mxCell id="JdqZie4KPndp9T757h1O-165" value="Deployment" style="rounded=0;whiteSpace=wrap;html=1;verticalAlign=middle;fillColor=#f5f5f5;strokeColor=#666666;fontColor=#333333;fontStyle=1" parent="JdqZie4KPndp9T757h1O-163" vertex="1">
          <mxGeometry width="170" height="30" as="geometry" />
        </mxCell>
        <mxCell id="JdqZie4KPndp9T757h1O-244" value="" style="sketch=0;html=1;dashed=0;whitespace=wrap;fillColor=#2875E2;strokeColor=#ffffff;points=[[0.005,0.63,0],[0.1,0.2,0],[0.9,0.2,0],[0.5,0,0],[0.995,0.63,0],[0.72,0.99,0],[0.5,1,0],[0.28,0.99,0]];verticalLabelPosition=bottom;align=center;verticalAlign=top;shape=mxgraph.kubernetes.icon;prIcon=deploy;fontSize=9;fontColor=#000000;aspect=fixed;" parent="JdqZie4KPndp9T757h1O-163" vertex="1">
          <mxGeometry x="142" y="3" width="25" height="24" as="geometry" />
        </mxCell>
        <mxCell id="JdqZie4KPndp9T757h1O-305" value="Volume" style="rounded=0;whiteSpace=wrap;html=1;fontColor=#000000;verticalAlign=top;align=left;" parent="JdqZie4KPndp9T757h1O-308" vertex="1">
          <mxGeometry y="62" width="60" height="24" as="geometry" />
        </mxCell>
        <mxCell id="JdqZie4KPndp9T757h1O-306" value="pvc.ghost.db" style="rounded=0;whiteSpace=wrap;html=1;fontColor=#000000;verticalAlign=top;align=left;spacing=2;spacingLeft=2;" parent="JdqZie4KPndp9T757h1O-308" vertex="1">
          <mxGeometry x="60" y="62" width="110" height="24" as="geometry" />
        </mxCell>
        <mxCell id="JdqZie4KPndp9T757h1O-178" style="edgeStyle=orthogonalEdgeStyle;rounded=1;orthogonalLoop=1;jettySize=auto;html=1;entryX=0.5;entryY=0;entryDx=0;entryDy=0;fontColor=#000000;exitX=1;exitY=0.5;exitDx=0;exitDy=0;jumpStyle=gap;" parent="JdqZie4KPndp9T757h1O-313" source="JdqZie4KPndp9T757h1O-165" target="JdqZie4KPndp9T757h1O-170" edge="1">
          <mxGeometry relative="1" as="geometry" />
        </mxCell>
        <mxCell id="JdqZie4KPndp9T757h1O-411" style="edgeStyle=orthogonalEdgeStyle;rounded=1;sketch=0;jumpStyle=gap;orthogonalLoop=1;jettySize=auto;html=1;fontSize=9;fontColor=none;" parent="JdqZie4KPndp9T757h1O-313" source="JdqZie4KPndp9T757h1O-306" target="JdqZie4KPndp9T757h1O-89" edge="1">
          <mxGeometry relative="1" as="geometry" />
        </mxCell>
        <mxCell id="JdqZie4KPndp9T757h1O-342" value="Namespace" style="swimlane;whiteSpace=wrap;html=1;fontSize=9;fontColor=#000000;container=0;collapsible=0;rounded=1;swimlaneLine=0;dashed=1;shadow=0;dashPattern=8 8;fillStyle=auto;fillColor=none;strokeColor=#4D4D4D;" parent="1" vertex="1">
          <mxGeometry x="-210" y="600" width="960" height="420" as="geometry" />
        </mxCell>
        <mxCell id="JdqZie4KPndp9T757h1O-167" value="" style="group;" parent="JdqZie4KPndp9T757h1O-342" vertex="1" connectable="0">
          <mxGeometry x="492.5" y="224" width="190" height="106" as="geometry" />
        </mxCell>
        <mxCell id="JdqZie4KPndp9T757h1O-97" value="name: heimdall&lt;br&gt;image:&amp;nbsp; lscr.io/linuxserver/heimdall" style="rounded=0;whiteSpace=wrap;html=1;fontColor=#000000;verticalAlign=top;align=left;" parent="JdqZie4KPndp9T757h1O-167" vertex="1">
          <mxGeometry y="30" width="190" height="52" as="geometry" />
        </mxCell>
        <mxCell id="JdqZie4KPndp9T757h1O-98" value="Pod" style="rounded=0;whiteSpace=wrap;html=1;verticalAlign=middle;fillColor=#f5f5f5;strokeColor=#666666;fontColor=#333333;fontStyle=1;" parent="JdqZie4KPndp9T757h1O-167" vertex="1">
          <mxGeometry width="190" height="30" as="geometry" />
        </mxCell>
        <mxCell id="JdqZie4KPndp9T757h1O-90" value="" style="html=1;dashed=0;whitespace=wrap;fillColor=#2875E2;strokeColor=#ffffff;points=[[0.005,0.63,0],[0.1,0.2,0],[0.9,0.2,0],[0.5,0,0],[0.995,0.63,0],[0.72,0.99,0],[0.5,1,0],[0.28,0.99,0]];verticalLabelPosition=bottom;align=center;verticalAlign=top;shape=mxgraph.kubernetes.icon;prIcon=pod;fontColor=#000000;aspect=fixed;" parent="JdqZie4KPndp9T757h1O-167" vertex="1">
          <mxGeometry x="162" y="3" width="25" height="24" as="geometry" />
        </mxCell>
        <mxCell id="JdqZie4KPndp9T757h1O-107" value="Port" style="rounded=0;whiteSpace=wrap;html=1;fontColor=#000000;verticalAlign=top;align=left;" parent="JdqZie4KPndp9T757h1O-167" vertex="1">
          <mxGeometry y="82" width="90" height="24" as="geometry" />
        </mxCell>
        <mxCell id="JdqZie4KPndp9T757h1O-108" value="443" style="rounded=0;whiteSpace=wrap;html=1;fontColor=#000000;verticalAlign=top;" parent="JdqZie4KPndp9T757h1O-167" vertex="1">
          <mxGeometry x="90" y="82" width="100" height="24" as="geometry" />
        </mxCell>
        <mxCell id="JdqZie4KPndp9T757h1O-185" value="" style="group" parent="JdqZie4KPndp9T757h1O-342" vertex="1" connectable="0">
          <mxGeometry x="112.5" y="244" width="170" height="110" as="geometry" />
        </mxCell>
        <mxCell id="JdqZie4KPndp9T757h1O-101" value="Service" style="rounded=0;whiteSpace=wrap;html=1;verticalAlign=middle;fillColor=#f5f5f5;strokeColor=#666666;fontColor=#333333;fontStyle=1" parent="JdqZie4KPndp9T757h1O-185" vertex="1">
          <mxGeometry width="170" height="30" as="geometry" />
        </mxCell>
        <mxCell id="JdqZie4KPndp9T757h1O-92" value="" style="sketch=0;html=1;dashed=0;whitespace=wrap;fillColor=#2875E2;strokeColor=#ffffff;points=[[0.005,0.63,0],[0.1,0.2,0],[0.9,0.2,0],[0.5,0,0],[0.995,0.63,0],[0.72,0.99,0],[0.5,1,0],[0.28,0.99,0]];verticalLabelPosition=bottom;align=center;verticalAlign=top;shape=mxgraph.kubernetes.icon;prIcon=svc;fontColor=#000000;aspect=fixed;" parent="JdqZie4KPndp9T757h1O-185" vertex="1">
          <mxGeometry x="142" y="3" width="25" height="24" as="geometry" />
        </mxCell>
        <mxCell id="JdqZie4KPndp9T757h1O-100" value="cip.heimdall" style="rounded=0;whiteSpace=wrap;html=1;fontColor=#000000;verticalAlign=top;" parent="JdqZie4KPndp9T757h1O-185" vertex="1">
          <mxGeometry y="30" width="170" height="32" as="geometry" />
        </mxCell>
        <mxCell id="JdqZie4KPndp9T757h1O-103" value="Target port" style="rounded=0;whiteSpace=wrap;html=1;fontColor=#000000;verticalAlign=top;align=left;" parent="JdqZie4KPndp9T757h1O-185" vertex="1">
          <mxGeometry y="62" width="90" height="24" as="geometry" />
        </mxCell>
        <mxCell id="JdqZie4KPndp9T757h1O-104" value="443" style="rounded=0;whiteSpace=wrap;html=1;fontColor=#000000;verticalAlign=top;" parent="JdqZie4KPndp9T757h1O-185" vertex="1">
          <mxGeometry x="90" y="62" width="80" height="24" as="geometry" />
        </mxCell>
        <mxCell id="JdqZie4KPndp9T757h1O-105" value="Port" style="rounded=0;whiteSpace=wrap;html=1;fontColor=#000000;verticalAlign=top;align=left;" parent="JdqZie4KPndp9T757h1O-185" vertex="1">
          <mxGeometry y="86" width="90" height="24" as="geometry" />
        </mxCell>
        <mxCell id="JdqZie4KPndp9T757h1O-106" value="443" style="rounded=0;whiteSpace=wrap;html=1;fontColor=#000000;verticalAlign=top;" parent="JdqZie4KPndp9T757h1O-185" vertex="1">
          <mxGeometry x="90" y="86" width="80" height="24" as="geometry" />
        </mxCell>
        <mxCell id="JdqZie4KPndp9T757h1O-109" style="edgeStyle=orthogonalEdgeStyle;rounded=1;orthogonalLoop=1;jettySize=auto;html=1;entryX=0;entryY=0.5;entryDx=0;entryDy=0;fontColor=#000000;" parent="JdqZie4KPndp9T757h1O-342" source="JdqZie4KPndp9T757h1O-104" target="JdqZie4KPndp9T757h1O-107" edge="1">
          <mxGeometry relative="1" as="geometry" />
        </mxCell>
        <mxCell id="JdqZie4KPndp9T757h1O-287" value="" style="group" parent="JdqZie4KPndp9T757h1O-342" vertex="1" connectable="0">
          <mxGeometry x="670" y="101" width="200" height="62" as="geometry" />
        </mxCell>
        <mxCell id="JdqZie4KPndp9T757h1O-288" value="pvc.ghost.db" style="rounded=0;whiteSpace=wrap;html=1;" parent="JdqZie4KPndp9T757h1O-287" vertex="1">
          <mxGeometry y="30" width="200" height="32" as="geometry" />
        </mxCell>
        <mxCell id="JdqZie4KPndp9T757h1O-289" value="Persistent Volume Claim" style="rounded=0;whiteSpace=wrap;html=1;verticalAlign=middle;fillColor=#f5f5f5;strokeColor=#666666;fontColor=#333333;fontStyle=1" parent="JdqZie4KPndp9T757h1O-287" vertex="1">
          <mxGeometry width="200" height="30" as="geometry" />
        </mxCell>
        <mxCell id="JdqZie4KPndp9T757h1O-290" value="" style="sketch=0;html=1;dashed=0;whitespace=wrap;fillColor=#2875E2;strokeColor=#ffffff;points=[[0.005,0.63,0],[0.1,0.2,0],[0.9,0.2,0],[0.5,0,0],[0.995,0.63,0],[0.72,0.99,0],[0.5,1,0],[0.28,0.99,0]];verticalLabelPosition=bottom;align=center;verticalAlign=top;shape=mxgraph.kubernetes.icon;prIcon=pvc;fontColor=#ffffff;aspect=fixed;" parent="JdqZie4KPndp9T757h1O-287" vertex="1">
          <mxGeometry x="172" y="3" width="25" height="24" as="geometry" />
        </mxCell>
        <mxCell id="JdqZie4KPndp9T757h1O-301" style="edgeStyle=orthogonalEdgeStyle;rounded=1;orthogonalLoop=1;jettySize=auto;html=1;entryX=0;entryY=0.5;entryDx=0;entryDy=0;fontSize=9;fontColor=#000000;jumpStyle=gap;" parent="JdqZie4KPndp9T757h1O-342" source="JdqZie4KPndp9T757h1O-300" target="JdqZie4KPndp9T757h1O-288" edge="1">
          <mxGeometry relative="1" as="geometry" />
        </mxCell>
        <mxCell id="JdqZie4KPndp9T757h1O-302" value="" style="group" parent="JdqZie4KPndp9T757h1O-342" vertex="1" connectable="0">
          <mxGeometry x="112.5" y="74" width="170" height="86" as="geometry" />
        </mxCell>
        <mxCell id="JdqZie4KPndp9T757h1O-299" value="Volume" style="rounded=0;whiteSpace=wrap;html=1;fontColor=#000000;verticalAlign=top;align=left;" parent="JdqZie4KPndp9T757h1O-302" vertex="1">
          <mxGeometry y="62" width="60" height="24" as="geometry" />
        </mxCell>
        <mxCell id="JdqZie4KPndp9T757h1O-300" value="pvc.heimdall" style="rounded=0;whiteSpace=wrap;html=1;fontColor=#000000;verticalAlign=top;align=left;" parent="JdqZie4KPndp9T757h1O-302" vertex="1">
          <mxGeometry x="60" y="62" width="110" height="24" as="geometry" />
        </mxCell>
        <mxCell id="JdqZie4KPndp9T757h1O-156" value="deploy.heimdall" style="rounded=0;whiteSpace=wrap;html=1;fontColor=#000000;verticalAlign=top;" parent="JdqZie4KPndp9T757h1O-302" vertex="1">
          <mxGeometry y="30" width="170" height="32" as="geometry" />
        </mxCell>
        <mxCell id="JdqZie4KPndp9T757h1O-157" value="Deployment" style="rounded=0;whiteSpace=wrap;html=1;verticalAlign=middle;fillColor=#f5f5f5;strokeColor=#666666;fontColor=#333333;fontStyle=1" parent="JdqZie4KPndp9T757h1O-302" vertex="1">
          <mxGeometry width="170" height="30" as="geometry" />
        </mxCell>
        <mxCell id="JdqZie4KPndp9T757h1O-65" value="" style="sketch=0;html=1;dashed=0;whitespace=wrap;fillColor=#2875E2;strokeColor=#ffffff;points=[[0.005,0.63,0],[0.1,0.2,0],[0.9,0.2,0],[0.5,0,0],[0.995,0.63,0],[0.72,0.99,0],[0.5,1,0],[0.28,0.99,0]];verticalLabelPosition=bottom;align=center;verticalAlign=top;shape=mxgraph.kubernetes.icon;prIcon=deploy;aspect=fixed;" parent="JdqZie4KPndp9T757h1O-302" vertex="1">
          <mxGeometry x="142" y="3" width="25" height="24" as="geometry" />
        </mxCell>
        <mxCell id="JdqZie4KPndp9T757h1O-162" style="edgeStyle=orthogonalEdgeStyle;rounded=1;orthogonalLoop=1;jettySize=auto;html=1;fontColor=#000000;exitX=1;exitY=0.5;exitDx=0;exitDy=0;jumpStyle=gap;" parent="JdqZie4KPndp9T757h1O-342" source="JdqZie4KPndp9T757h1O-157" target="JdqZie4KPndp9T757h1O-98" edge="1">
          <mxGeometry relative="1" as="geometry" />
        </mxCell>
        <mxCell id="JdqZie4KPndp9T757h1O-370" value="Namespace" style="swimlane;whiteSpace=wrap;html=1;fontSize=9;fontColor=#000000;container=0;collapsible=0;rounded=1;swimlaneLine=0;dashed=1;shadow=0;dashPattern=8 8;fillStyle=auto;fillColor=none;strokeColor=#4D4D4D;" parent="1" vertex="1">
          <mxGeometry x="-100" y="-88" width="960" height="420" as="geometry" />
        </mxCell>
        <mxCell id="JdqZie4KPndp9T757h1O-386" value="" style="group" parent="JdqZie4KPndp9T757h1O-370" vertex="1" connectable="0">
          <mxGeometry x="670" y="102" width="200" height="62" as="geometry" />
        </mxCell>
        <mxCell id="JdqZie4KPndp9T757h1O-387" value="pvc.pihole" style="rounded=0;whiteSpace=wrap;html=1;" parent="JdqZie4KPndp9T757h1O-386" vertex="1">
          <mxGeometry y="30" width="200" height="32" as="geometry" />
        </mxCell>
        <mxCell id="JdqZie4KPndp9T757h1O-388" value="Persistent Volume Claim" style="rounded=0;whiteSpace=wrap;html=1;verticalAlign=middle;fillColor=#f5f5f5;strokeColor=#666666;fontColor=#333333;fontStyle=1" parent="JdqZie4KPndp9T757h1O-386" vertex="1">
          <mxGeometry width="200" height="30" as="geometry" />
        </mxCell>
        <mxCell id="JdqZie4KPndp9T757h1O-389" value="" style="sketch=0;html=1;dashed=0;whitespace=wrap;fillColor=#2875E2;strokeColor=#ffffff;points=[[0.005,0.63,0],[0.1,0.2,0],[0.9,0.2,0],[0.5,0,0],[0.995,0.63,0],[0.72,0.99,0],[0.5,1,0],[0.28,0.99,0]];verticalLabelPosition=bottom;align=center;verticalAlign=top;shape=mxgraph.kubernetes.icon;prIcon=pvc;fontColor=#ffffff;aspect=fixed;" parent="JdqZie4KPndp9T757h1O-386" vertex="1">
          <mxGeometry x="172" y="3" width="25" height="24" as="geometry" />
        </mxCell>
        <mxCell id="JdqZie4KPndp9T757h1O-390" style="edgeStyle=orthogonalEdgeStyle;rounded=1;orthogonalLoop=1;jettySize=auto;html=1;entryX=0;entryY=0.5;entryDx=0;entryDy=0;fontSize=9;fontColor=#000000;jumpStyle=gap;" parent="JdqZie4KPndp9T757h1O-370" source="JdqZie4KPndp9T757h1O-393" target="JdqZie4KPndp9T757h1O-387" edge="1">
          <mxGeometry relative="1" as="geometry" />
        </mxCell>
        <mxCell id="JdqZie4KPndp9T757h1O-391" value="" style="group" parent="JdqZie4KPndp9T757h1O-370" vertex="1" connectable="0">
          <mxGeometry x="112.5" y="74" width="170" height="86" as="geometry" />
        </mxCell>
        <mxCell id="JdqZie4KPndp9T757h1O-392" value="Volume" style="rounded=0;whiteSpace=wrap;html=1;fontColor=#000000;verticalAlign=top;align=left;" parent="JdqZie4KPndp9T757h1O-391" vertex="1">
          <mxGeometry y="62" width="60" height="24" as="geometry" />
        </mxCell>
        <mxCell id="JdqZie4KPndp9T757h1O-393" value="pvc.pihole" style="rounded=0;whiteSpace=wrap;html=1;fontColor=#000000;verticalAlign=top;align=left;" parent="JdqZie4KPndp9T757h1O-391" vertex="1">
          <mxGeometry x="60" y="62" width="110" height="24" as="geometry" />
        </mxCell>
        <mxCell id="JdqZie4KPndp9T757h1O-394" value="deploy.pihole" style="rounded=0;whiteSpace=wrap;html=1;fontColor=#000000;verticalAlign=top;" parent="JdqZie4KPndp9T757h1O-391" vertex="1">
          <mxGeometry y="30" width="170" height="32" as="geometry" />
        </mxCell>
        <mxCell id="JdqZie4KPndp9T757h1O-395" value="Deployment" style="rounded=0;whiteSpace=wrap;html=1;verticalAlign=middle;fillColor=#f5f5f5;strokeColor=#666666;fontColor=#333333;fontStyle=1" parent="JdqZie4KPndp9T757h1O-391" vertex="1">
          <mxGeometry width="170" height="30" as="geometry" />
        </mxCell>
        <mxCell id="JdqZie4KPndp9T757h1O-396" value="" style="sketch=0;html=1;dashed=0;whitespace=wrap;fillColor=#2875E2;strokeColor=#ffffff;points=[[0.005,0.63,0],[0.1,0.2,0],[0.9,0.2,0],[0.5,0,0],[0.995,0.63,0],[0.72,0.99,0],[0.5,1,0],[0.28,0.99,0]];verticalLabelPosition=bottom;align=center;verticalAlign=top;shape=mxgraph.kubernetes.icon;prIcon=deploy;aspect=fixed;" parent="JdqZie4KPndp9T757h1O-391" vertex="1">
          <mxGeometry x="142" y="3" width="25" height="24" as="geometry" />
        </mxCell>
        <mxCell id="JdqZie4KPndp9T757h1O-397" style="edgeStyle=orthogonalEdgeStyle;rounded=1;orthogonalLoop=1;jettySize=auto;html=1;fontColor=#000000;exitX=1;exitY=0.5;exitDx=0;exitDy=0;jumpStyle=gap;" parent="JdqZie4KPndp9T757h1O-370" source="JdqZie4KPndp9T757h1O-395" target="JdqZie4KPndp9T757h1O-373" edge="1">
          <mxGeometry relative="1" as="geometry" />
        </mxCell>
        <mxCell id="JdqZie4KPndp9T757h1O-154" value="" style="group" parent="JdqZie4KPndp9T757h1O-370" vertex="1" connectable="0">
          <mxGeometry x="760" y="237" width="170" height="86" as="geometry" />
        </mxCell>
        <mxCell id="JdqZie4KPndp9T757h1O-123" value="secrets.pihole" style="rounded=0;whiteSpace=wrap;html=1;fontColor=#000000;verticalAlign=top;" parent="JdqZie4KPndp9T757h1O-154" vertex="1">
          <mxGeometry y="30" width="170" height="32" as="geometry" />
        </mxCell>
        <mxCell id="JdqZie4KPndp9T757h1O-122" value="Secret" style="rounded=0;whiteSpace=wrap;html=1;verticalAlign=middle;fillColor=#f5f5f5;strokeColor=#666666;fontColor=#333333;fontStyle=1" parent="JdqZie4KPndp9T757h1O-154" vertex="1">
          <mxGeometry width="170" height="30" as="geometry" />
        </mxCell>
        <mxCell id="JdqZie4KPndp9T757h1O-120" value="" style="sketch=0;html=1;dashed=0;whitespace=wrap;fillColor=#2875E2;strokeColor=#ffffff;points=[[0.005,0.63,0],[0.1,0.2,0],[0.9,0.2,0],[0.5,0,0],[0.995,0.63,0],[0.72,0.99,0],[0.5,1,0],[0.28,0.99,0]];verticalLabelPosition=bottom;align=center;verticalAlign=top;shape=mxgraph.kubernetes.icon;prIcon=secret;fontColor=#000000;aspect=fixed;" parent="JdqZie4KPndp9T757h1O-154" vertex="1">
          <mxGeometry x="142" y="3" width="25" height="24" as="geometry" />
        </mxCell>
        <mxCell id="JdqZie4KPndp9T757h1O-69" value="password" style="rounded=0;whiteSpace=wrap;html=1;align=left;" parent="JdqZie4KPndp9T757h1O-154" vertex="1">
          <mxGeometry x="50" y="62" width="120" height="24" as="geometry" />
        </mxCell>
        <mxCell id="JdqZie4KPndp9T757h1O-127" value="key" style="rounded=0;whiteSpace=wrap;html=1;align=left;" parent="JdqZie4KPndp9T757h1O-154" vertex="1">
          <mxGeometry y="62" width="50" height="24" as="geometry" />
        </mxCell>
        <mxCell id="JdqZie4KPndp9T757h1O-453" value="" style="group" parent="JdqZie4KPndp9T757h1O-370" vertex="1" connectable="0">
          <mxGeometry x="112.5" y="244" width="170" height="158" as="geometry" />
        </mxCell>
        <mxCell id="JdqZie4KPndp9T757h1O-377" value="" style="group" parent="JdqZie4KPndp9T757h1O-453" vertex="1" connectable="0">
          <mxGeometry width="170" height="110" as="geometry" />
        </mxCell>
        <mxCell id="JdqZie4KPndp9T757h1O-378" value="Service" style="rounded=0;whiteSpace=wrap;html=1;verticalAlign=middle;fillColor=#f5f5f5;strokeColor=#666666;fontColor=#333333;fontStyle=1" parent="JdqZie4KPndp9T757h1O-377" vertex="1">
          <mxGeometry width="170" height="30" as="geometry" />
        </mxCell>
        <mxCell id="JdqZie4KPndp9T757h1O-379" value="" style="sketch=0;html=1;dashed=0;whitespace=wrap;fillColor=#2875E2;strokeColor=#ffffff;points=[[0.005,0.63,0],[0.1,0.2,0],[0.9,0.2,0],[0.5,0,0],[0.995,0.63,0],[0.72,0.99,0],[0.5,1,0],[0.28,0.99,0]];verticalLabelPosition=bottom;align=center;verticalAlign=top;shape=mxgraph.kubernetes.icon;prIcon=svc;fontColor=#000000;aspect=fixed;" parent="JdqZie4KPndp9T757h1O-377" vertex="1">
          <mxGeometry x="142" y="3" width="25" height="24" as="geometry" />
        </mxCell>
        <mxCell id="JdqZie4KPndp9T757h1O-380" value="cip.heimdall" style="rounded=0;whiteSpace=wrap;html=1;fontColor=#000000;verticalAlign=top;" parent="JdqZie4KPndp9T757h1O-377" vertex="1">
          <mxGeometry y="30" width="170" height="32" as="geometry" />
        </mxCell>
        <mxCell id="JdqZie4KPndp9T757h1O-381" value="Target port" style="rounded=0;whiteSpace=wrap;html=1;fontColor=#000000;verticalAlign=top;align=left;" parent="JdqZie4KPndp9T757h1O-377" vertex="1">
          <mxGeometry y="62" width="90" height="24" as="geometry" />
        </mxCell>
        <mxCell id="JdqZie4KPndp9T757h1O-382" value="443" style="rounded=0;whiteSpace=wrap;html=1;fontColor=#000000;verticalAlign=top;" parent="JdqZie4KPndp9T757h1O-377" vertex="1">
          <mxGeometry x="90" y="62" width="80" height="24" as="geometry" />
        </mxCell>
        <mxCell id="JdqZie4KPndp9T757h1O-383" value="Port" style="rounded=0;whiteSpace=wrap;html=1;fontColor=#000000;verticalAlign=top;align=left;" parent="JdqZie4KPndp9T757h1O-377" vertex="1">
          <mxGeometry y="86" width="90" height="24" as="geometry" />
        </mxCell>
        <mxCell id="JdqZie4KPndp9T757h1O-384" value="443" style="rounded=0;whiteSpace=wrap;html=1;fontColor=#000000;verticalAlign=top;" parent="JdqZie4KPndp9T757h1O-377" vertex="1">
          <mxGeometry x="90" y="86" width="80" height="24" as="geometry" />
        </mxCell>
        <mxCell id="JdqZie4KPndp9T757h1O-400" value="Target port" style="rounded=0;whiteSpace=wrap;html=1;fontColor=#000000;verticalAlign=top;align=left;" parent="JdqZie4KPndp9T757h1O-453" vertex="1">
          <mxGeometry y="110" width="90" height="24" as="geometry" />
        </mxCell>
        <mxCell id="JdqZie4KPndp9T757h1O-401" value="53" style="rounded=0;whiteSpace=wrap;html=1;fontColor=#000000;verticalAlign=top;" parent="JdqZie4KPndp9T757h1O-453" vertex="1">
          <mxGeometry x="90" y="110" width="80" height="24" as="geometry" />
        </mxCell>
        <mxCell id="JdqZie4KPndp9T757h1O-402" value="53" style="rounded=0;whiteSpace=wrap;html=1;fontColor=#000000;verticalAlign=top;" parent="JdqZie4KPndp9T757h1O-453" vertex="1">
          <mxGeometry x="90" y="134" width="80" height="24" as="geometry" />
        </mxCell>
        <mxCell id="JdqZie4KPndp9T757h1O-403" value="Port" style="rounded=0;whiteSpace=wrap;html=1;fontColor=#000000;verticalAlign=top;align=left;" parent="JdqZie4KPndp9T757h1O-453" vertex="1">
          <mxGeometry y="134" width="90" height="24" as="geometry" />
        </mxCell>
        <mxCell id="JdqZie4KPndp9T757h1O-385" style="edgeStyle=orthogonalEdgeStyle;rounded=1;orthogonalLoop=1;jettySize=auto;html=1;entryX=0;entryY=0.5;entryDx=0;entryDy=0;fontColor=#000000;" parent="JdqZie4KPndp9T757h1O-370" source="JdqZie4KPndp9T757h1O-382" target="JdqZie4KPndp9T757h1O-399" edge="1">
          <mxGeometry relative="1" as="geometry" />
        </mxCell>
        <mxCell id="JdqZie4KPndp9T757h1O-405" style="edgeStyle=orthogonalEdgeStyle;rounded=1;sketch=0;jumpStyle=gap;orthogonalLoop=1;jettySize=auto;html=1;entryX=0;entryY=0.5;entryDx=0;entryDy=0;fontSize=9;fontColor=none;" parent="JdqZie4KPndp9T757h1O-370" source="JdqZie4KPndp9T757h1O-401" target="JdqZie4KPndp9T757h1O-404" edge="1">
          <mxGeometry relative="1" as="geometry" />
        </mxCell>
        <mxCell id="JdqZie4KPndp9T757h1O-398" value="53" style="rounded=0;whiteSpace=wrap;html=1;fontColor=#000000;verticalAlign=top;strokeColor=#000000;" parent="JdqZie4KPndp9T757h1O-370" vertex="1">
          <mxGeometry x="530" y="330" width="152.5" height="24" as="geometry" />
        </mxCell>
        <mxCell id="JdqZie4KPndp9T757h1O-372" value="name: pihole&lt;br&gt;image:&amp;nbsp; pihole" style="rounded=0;whiteSpace=wrap;html=1;fontColor=#000000;verticalAlign=top;align=left;" parent="JdqZie4KPndp9T757h1O-370" vertex="1">
          <mxGeometry x="492.5" y="254" width="190" height="52" as="geometry" />
        </mxCell>
        <mxCell id="JdqZie4KPndp9T757h1O-373" value="Pod" style="rounded=0;whiteSpace=wrap;html=1;verticalAlign=middle;fillColor=#f5f5f5;strokeColor=#666666;fontColor=#333333;fontStyle=1;" parent="JdqZie4KPndp9T757h1O-370" vertex="1">
          <mxGeometry x="492.5" y="224" width="190" height="30" as="geometry" />
        </mxCell>
        <mxCell id="JdqZie4KPndp9T757h1O-374" value="" style="html=1;dashed=0;whitespace=wrap;fillColor=#2875E2;strokeColor=#ffffff;points=[[0.005,0.63,0],[0.1,0.2,0],[0.9,0.2,0],[0.5,0,0],[0.995,0.63,0],[0.72,0.99,0],[0.5,1,0],[0.28,0.99,0]];verticalLabelPosition=bottom;align=center;verticalAlign=top;shape=mxgraph.kubernetes.icon;prIcon=pod;fontColor=#000000;aspect=fixed;" parent="JdqZie4KPndp9T757h1O-370" vertex="1">
          <mxGeometry x="654.5" y="227" width="25" height="24" as="geometry" />
        </mxCell>
        <mxCell id="JdqZie4KPndp9T757h1O-375" value="Port" style="rounded=0;whiteSpace=wrap;html=1;fontColor=#000000;verticalAlign=middle;align=left;" parent="JdqZie4KPndp9T757h1O-370" vertex="1">
          <mxGeometry x="492.5" y="306" width="37.5" height="48" as="geometry" />
        </mxCell>
        <mxCell id="JdqZie4KPndp9T757h1O-376" value="80" style="rounded=0;whiteSpace=wrap;html=1;fontColor=#000000;verticalAlign=top;" parent="JdqZie4KPndp9T757h1O-370" vertex="1">
          <mxGeometry x="530" y="306" width="152.5" height="24" as="geometry" />
        </mxCell>
        <mxCell id="JdqZie4KPndp9T757h1O-457" style="edgeStyle=orthogonalEdgeStyle;rounded=1;sketch=0;jumpStyle=gap;orthogonalLoop=1;jettySize=auto;html=1;entryX=0;entryY=0.5;entryDx=0;entryDy=0;fontSize=9;fontColor=none;strokeColor=#7ea6e0;endArrow=none;endFill=0;fillColor=#dae8fc;" parent="JdqZie4KPndp9T757h1O-370" source="JdqZie4KPndp9T757h1O-399" target="JdqZie4KPndp9T757h1O-459" edge="1">
          <mxGeometry relative="1" as="geometry" />
        </mxCell>
        <mxCell id="JdqZie4KPndp9T757h1O-399" value="" style="ellipse;whiteSpace=wrap;html=1;aspect=fixed;rounded=1;shadow=0;sketch=0;fillStyle=auto;strokeColor=#7EA6E0;fontSize=9;fillColor=#dae8fc;noLabel=1;" parent="JdqZie4KPndp9T757h1O-370" vertex="1">
          <mxGeometry x="487" y="312.5" width="11" height="11" as="geometry" />
        </mxCell>
        <mxCell id="JdqZie4KPndp9T757h1O-404" value="" style="ellipse;whiteSpace=wrap;html=1;aspect=fixed;rounded=1;shadow=0;sketch=0;fillStyle=auto;strokeColor=#7EA6E0;fontSize=9;fillColor=#dae8fc;noLabel=1;" parent="JdqZie4KPndp9T757h1O-370" vertex="1">
          <mxGeometry x="487" y="336.5" width="11" height="11" as="geometry" />
        </mxCell>
        <mxCell id="JdqZie4KPndp9T757h1O-455" value="WEBPASSWORD" style="rounded=0;whiteSpace=wrap;html=1;fontColor=#000000;verticalAlign=top;" parent="JdqZie4KPndp9T757h1O-370" vertex="1">
          <mxGeometry x="530" y="354" width="152.5" height="24" as="geometry" />
        </mxCell>
        <mxCell id="JdqZie4KPndp9T757h1O-456" value="env" style="rounded=0;whiteSpace=wrap;html=1;fontColor=#000000;verticalAlign=middle;align=left;" parent="JdqZie4KPndp9T757h1O-370" vertex="1">
          <mxGeometry x="492.5" y="354" width="37.5" height="24" as="geometry" />
        </mxCell>
        <mxCell id="JdqZie4KPndp9T757h1O-459" value="" style="ellipse;whiteSpace=wrap;html=1;aspect=fixed;rounded=1;shadow=0;sketch=0;fillStyle=auto;strokeColor=#7EA6E0;fontSize=9;fillColor=#dae8fc;noLabel=1;" parent="JdqZie4KPndp9T757h1O-370" vertex="1">
          <mxGeometry x="540" y="312.5" width="11" height="11" as="geometry" />
        </mxCell>
        <mxCell id="JdqZie4KPndp9T757h1O-460" value="" style="ellipse;whiteSpace=wrap;html=1;aspect=fixed;rounded=1;shadow=0;sketch=0;fillStyle=auto;strokeColor=#7EA6E0;fontSize=9;fillColor=#dae8fc;noLabel=1;" parent="JdqZie4KPndp9T757h1O-370" vertex="1">
          <mxGeometry x="540" y="336.5" width="11" height="11" as="geometry" />
        </mxCell>
        <mxCell id="JdqZie4KPndp9T757h1O-461" style="edgeStyle=orthogonalEdgeStyle;rounded=1;sketch=0;jumpStyle=gap;orthogonalLoop=1;jettySize=auto;html=1;entryX=0;entryY=0.5;entryDx=0;entryDy=0;fontSize=9;fontColor=none;strokeColor=#7ea6e0;endArrow=none;endFill=0;fillColor=#dae8fc;exitX=1;exitY=0.5;exitDx=0;exitDy=0;" parent="JdqZie4KPndp9T757h1O-370" source="JdqZie4KPndp9T757h1O-404" target="JdqZie4KPndp9T757h1O-460" edge="1">
          <mxGeometry relative="1" as="geometry">
            <mxPoint x="498" y="341.96000000000004" as="sourcePoint" />
            <mxPoint x="540.0000000000216" y="341.96000000000004" as="targetPoint" />
          </mxGeometry>
        </mxCell>
        <mxCell id="JdqZie4KPndp9T757h1O-406" style="edgeStyle=orthogonalEdgeStyle;rounded=1;sketch=0;jumpStyle=gap;orthogonalLoop=1;jettySize=auto;html=1;entryX=0;entryY=0.5;entryDx=0;entryDy=0;fontSize=9;fontColor=none;" parent="1" source="JdqZie4KPndp9T757h1O-116" target="JdqZie4KPndp9T757h1O-383" edge="1">
          <mxGeometry relative="1" as="geometry" />
        </mxCell>
        <mxCell id="JdqZie4KPndp9T757h1O-407" value="port" style="rounded=0;whiteSpace=wrap;html=1;fontColor=#000000;verticalAlign=top;align=left;" parent="1" vertex="1">
          <mxGeometry x="-460" y="290" width="40" height="24" as="geometry" />
        </mxCell>
        <mxCell id="JdqZie4KPndp9T757h1O-409" style="edgeStyle=orthogonalEdgeStyle;rounded=1;sketch=0;jumpStyle=gap;orthogonalLoop=1;jettySize=auto;html=1;entryX=0;entryY=0.5;entryDx=0;entryDy=0;fontSize=9;fontColor=none;" parent="1" source="JdqZie4KPndp9T757h1O-408" target="JdqZie4KPndp9T757h1O-403" edge="1">
          <mxGeometry relative="1" as="geometry" />
        </mxCell>
        <mxCell id="JdqZie4KPndp9T757h1O-408" value="53" style="rounded=0;whiteSpace=wrap;html=1;fontColor=#000000;verticalAlign=top;" parent="1" vertex="1">
          <mxGeometry x="-420" y="290" width="130" height="24" as="geometry" />
        </mxCell>
        <mxCell id="JdqZie4KPndp9T757h1O-412" value="Namespace" style="swimlane;whiteSpace=wrap;html=1;fontSize=9;fontColor=#000000;container=0;collapsible=0;rounded=1;swimlaneLine=0;dashed=1;shadow=0;dashPattern=8 8;fillStyle=auto;fillColor=none;strokeColor=#4D4D4D;movable=0;resizable=0;rotatable=0;deletable=0;editable=0;connectable=0;" parent="1" vertex="1">
          <mxGeometry x="-100" y="-570" width="960" height="420" as="geometry" />
        </mxCell>
        <mxCell id="JdqZie4KPndp9T757h1O-413" value="" style="group" parent="JdqZie4KPndp9T757h1O-412" vertex="1" connectable="0">
          <mxGeometry x="112.5" y="244" width="170" height="110" as="geometry" />
        </mxCell>
        <mxCell id="JdqZie4KPndp9T757h1O-414" value="Service" style="rounded=0;whiteSpace=wrap;html=1;verticalAlign=middle;fillColor=#f5f5f5;strokeColor=#666666;fontColor=#333333;fontStyle=1" parent="JdqZie4KPndp9T757h1O-413" vertex="1">
          <mxGeometry width="170" height="30" as="geometry" />
        </mxCell>
        <mxCell id="JdqZie4KPndp9T757h1O-415" value="" style="sketch=0;html=1;dashed=0;whitespace=wrap;fillColor=#2875E2;strokeColor=#ffffff;points=[[0.005,0.63,0],[0.1,0.2,0],[0.9,0.2,0],[0.5,0,0],[0.995,0.63,0],[0.72,0.99,0],[0.5,1,0],[0.28,0.99,0]];verticalLabelPosition=bottom;align=center;verticalAlign=top;shape=mxgraph.kubernetes.icon;prIcon=svc;fontColor=#000000;aspect=fixed;" parent="JdqZie4KPndp9T757h1O-413" vertex="1">
          <mxGeometry x="142" y="3" width="25" height="24" as="geometry" />
        </mxCell>
        <mxCell id="JdqZie4KPndp9T757h1O-416" value="cip.step" style="rounded=0;whiteSpace=wrap;html=1;fontColor=#000000;verticalAlign=top;" parent="JdqZie4KPndp9T757h1O-413" vertex="1">
          <mxGeometry y="30" width="170" height="32" as="geometry" />
        </mxCell>
        <mxCell id="JdqZie4KPndp9T757h1O-417" value="Target port" style="rounded=0;whiteSpace=wrap;html=1;fontColor=#000000;verticalAlign=top;align=left;" parent="JdqZie4KPndp9T757h1O-413" vertex="1">
          <mxGeometry y="62" width="90" height="24" as="geometry" />
        </mxCell>
        <mxCell id="JdqZie4KPndp9T757h1O-418" value="443" style="rounded=0;whiteSpace=wrap;html=1;fontColor=#000000;verticalAlign=top;" parent="JdqZie4KPndp9T757h1O-413" vertex="1">
          <mxGeometry x="90" y="62" width="80" height="24" as="geometry" />
        </mxCell>
        <mxCell id="JdqZie4KPndp9T757h1O-419" value="Port" style="rounded=0;whiteSpace=wrap;html=1;fontColor=#000000;verticalAlign=top;align=left;" parent="JdqZie4KPndp9T757h1O-413" vertex="1">
          <mxGeometry y="86" width="90" height="24" as="geometry" />
        </mxCell>
        <mxCell id="JdqZie4KPndp9T757h1O-420" value="443" style="rounded=0;whiteSpace=wrap;html=1;fontColor=#000000;verticalAlign=top;" parent="JdqZie4KPndp9T757h1O-413" vertex="1">
          <mxGeometry x="90" y="86" width="80" height="24" as="geometry" />
        </mxCell>
        <mxCell id="JdqZie4KPndp9T757h1O-421" value="" style="group" parent="JdqZie4KPndp9T757h1O-412" vertex="1" connectable="0">
          <mxGeometry x="662.5" y="66" width="200" height="62" as="geometry" />
        </mxCell>
        <mxCell id="JdqZie4KPndp9T757h1O-422" value="pvc.step" style="rounded=0;whiteSpace=wrap;html=1;" parent="JdqZie4KPndp9T757h1O-421" vertex="1">
          <mxGeometry y="30" width="200" height="32" as="geometry" />
        </mxCell>
        <mxCell id="JdqZie4KPndp9T757h1O-423" value="Persistent Volume Claim" style="rounded=0;whiteSpace=wrap;html=1;verticalAlign=middle;fillColor=#f5f5f5;strokeColor=#666666;fontColor=#333333;fontStyle=1" parent="JdqZie4KPndp9T757h1O-421" vertex="1">
          <mxGeometry width="200" height="30" as="geometry" />
        </mxCell>
        <mxCell id="JdqZie4KPndp9T757h1O-424" value="" style="sketch=0;html=1;dashed=0;whitespace=wrap;fillColor=#2875E2;strokeColor=#ffffff;points=[[0.005,0.63,0],[0.1,0.2,0],[0.9,0.2,0],[0.5,0,0],[0.995,0.63,0],[0.72,0.99,0],[0.5,1,0],[0.28,0.99,0]];verticalLabelPosition=bottom;align=center;verticalAlign=top;shape=mxgraph.kubernetes.icon;prIcon=pvc;fontColor=#ffffff;aspect=fixed;" parent="JdqZie4KPndp9T757h1O-421" vertex="1">
          <mxGeometry x="172" y="3" width="25" height="24" as="geometry" />
        </mxCell>
        <mxCell id="JdqZie4KPndp9T757h1O-425" style="edgeStyle=orthogonalEdgeStyle;rounded=1;orthogonalLoop=1;jettySize=auto;html=1;entryX=0;entryY=0.5;entryDx=0;entryDy=0;fontSize=9;fontColor=#000000;" parent="JdqZie4KPndp9T757h1O-412" source="JdqZie4KPndp9T757h1O-428" target="JdqZie4KPndp9T757h1O-422" edge="1">
          <mxGeometry relative="1" as="geometry" />
        </mxCell>
        <mxCell id="JdqZie4KPndp9T757h1O-426" value="" style="group" parent="JdqZie4KPndp9T757h1O-412" vertex="1" connectable="0">
          <mxGeometry x="112.5" y="74" width="170" height="86" as="geometry" />
        </mxCell>
        <mxCell id="JdqZie4KPndp9T757h1O-427" value="Volume" style="rounded=0;whiteSpace=wrap;html=1;fontColor=#000000;verticalAlign=top;align=left;" parent="JdqZie4KPndp9T757h1O-426" vertex="1">
          <mxGeometry y="62" width="60" height="24" as="geometry" />
        </mxCell>
        <mxCell id="JdqZie4KPndp9T757h1O-428" value="pvc.step" style="rounded=0;whiteSpace=wrap;html=1;fontColor=#000000;verticalAlign=top;align=left;" parent="JdqZie4KPndp9T757h1O-426" vertex="1">
          <mxGeometry x="60" y="62" width="110" height="24" as="geometry" />
        </mxCell>
        <mxCell id="JdqZie4KPndp9T757h1O-429" value="deploy.step" style="rounded=0;whiteSpace=wrap;html=1;fontColor=#000000;verticalAlign=top;" parent="JdqZie4KPndp9T757h1O-426" vertex="1">
          <mxGeometry y="30" width="170" height="32" as="geometry" />
        </mxCell>
        <mxCell id="JdqZie4KPndp9T757h1O-430" value="Deployment" style="rounded=0;whiteSpace=wrap;html=1;verticalAlign=middle;fillColor=#f5f5f5;strokeColor=#666666;fontColor=#333333;fontStyle=1" parent="JdqZie4KPndp9T757h1O-426" vertex="1">
          <mxGeometry width="170" height="30" as="geometry" />
        </mxCell>
        <mxCell id="JdqZie4KPndp9T757h1O-431" value="" style="sketch=0;html=1;dashed=0;whitespace=wrap;fillColor=#2875E2;strokeColor=#ffffff;points=[[0.005,0.63,0],[0.1,0.2,0],[0.9,0.2,0],[0.5,0,0],[0.995,0.63,0],[0.72,0.99,0],[0.5,1,0],[0.28,0.99,0]];verticalLabelPosition=bottom;align=center;verticalAlign=top;shape=mxgraph.kubernetes.icon;prIcon=deploy;aspect=fixed;" parent="JdqZie4KPndp9T757h1O-426" vertex="1">
          <mxGeometry x="142" y="3" width="25" height="24" as="geometry" />
        </mxCell>
        <mxCell id="JdqZie4KPndp9T757h1O-432" style="edgeStyle=orthogonalEdgeStyle;rounded=1;orthogonalLoop=1;jettySize=auto;html=1;fontColor=#000000;exitX=1;exitY=0.5;exitDx=0;exitDy=0;" parent="JdqZie4KPndp9T757h1O-412" source="JdqZie4KPndp9T757h1O-430" target="JdqZie4KPndp9T757h1O-435" edge="1">
          <mxGeometry relative="1" as="geometry" />
        </mxCell>
        <mxCell id="JdqZie4KPndp9T757h1O-434" value="name: pihole&lt;br&gt;image:&amp;nbsp; pihole" style="rounded=0;whiteSpace=wrap;html=1;fontColor=#000000;verticalAlign=top;align=left;" parent="JdqZie4KPndp9T757h1O-412" vertex="1">
          <mxGeometry x="492.5" y="254" width="190" height="52" as="geometry" />
        </mxCell>
        <mxCell id="JdqZie4KPndp9T757h1O-435" value="Pod" style="rounded=0;whiteSpace=wrap;html=1;verticalAlign=middle;fillColor=#f5f5f5;strokeColor=#666666;fontColor=#333333;fontStyle=1;" parent="JdqZie4KPndp9T757h1O-412" vertex="1">
          <mxGeometry x="492.5" y="224" width="190" height="30" as="geometry" />
        </mxCell>
        <mxCell id="JdqZie4KPndp9T757h1O-436" value="" style="html=1;dashed=0;whitespace=wrap;fillColor=#2875E2;strokeColor=#ffffff;points=[[0.005,0.63,0],[0.1,0.2,0],[0.9,0.2,0],[0.5,0,0],[0.995,0.63,0],[0.72,0.99,0],[0.5,1,0],[0.28,0.99,0]];verticalLabelPosition=bottom;align=center;verticalAlign=top;shape=mxgraph.kubernetes.icon;prIcon=pod;fontColor=#000000;aspect=fixed;" parent="JdqZie4KPndp9T757h1O-412" vertex="1">
          <mxGeometry x="654.5" y="227" width="25" height="24" as="geometry" />
        </mxCell>
        <mxCell id="JdqZie4KPndp9T757h1O-437" value="Port" style="rounded=0;whiteSpace=wrap;html=1;fontColor=#000000;verticalAlign=middle;align=left;" parent="JdqZie4KPndp9T757h1O-412" vertex="1">
          <mxGeometry x="492.5" y="306" width="90" height="24" as="geometry" />
        </mxCell>
        <mxCell id="JdqZie4KPndp9T757h1O-438" value="80" style="rounded=0;whiteSpace=wrap;html=1;fontColor=#000000;verticalAlign=top;" parent="JdqZie4KPndp9T757h1O-412" vertex="1">
          <mxGeometry x="582.5" y="306" width="100" height="24" as="geometry" />
        </mxCell>
        <mxCell id="JdqZie4KPndp9T757h1O-439" value="" style="group" parent="JdqZie4KPndp9T757h1O-412" vertex="1" connectable="0">
          <mxGeometry x="760" y="237" width="170" height="86" as="geometry" />
        </mxCell>
        <mxCell id="JdqZie4KPndp9T757h1O-440" value="secrets.pihole" style="rounded=0;whiteSpace=wrap;html=1;fontColor=#000000;verticalAlign=top;" parent="JdqZie4KPndp9T757h1O-439" vertex="1">
          <mxGeometry y="30" width="170" height="32" as="geometry" />
        </mxCell>
        <mxCell id="JdqZie4KPndp9T757h1O-441" value="Secret" style="rounded=0;whiteSpace=wrap;html=1;verticalAlign=middle;fillColor=#f5f5f5;strokeColor=#666666;fontColor=#333333;fontStyle=1" parent="JdqZie4KPndp9T757h1O-439" vertex="1">
          <mxGeometry width="170" height="30" as="geometry" />
        </mxCell>
        <mxCell id="JdqZie4KPndp9T757h1O-442" value="" style="sketch=0;html=1;dashed=0;whitespace=wrap;fillColor=#2875E2;strokeColor=#ffffff;points=[[0.005,0.63,0],[0.1,0.2,0],[0.9,0.2,0],[0.5,0,0],[0.995,0.63,0],[0.72,0.99,0],[0.5,1,0],[0.28,0.99,0]];verticalLabelPosition=bottom;align=center;verticalAlign=top;shape=mxgraph.kubernetes.icon;prIcon=secret;fontColor=#000000;aspect=fixed;" parent="JdqZie4KPndp9T757h1O-439" vertex="1">
          <mxGeometry x="142" y="3" width="25" height="24" as="geometry" />
        </mxCell>
        <mxCell id="JdqZie4KPndp9T757h1O-443" value="password" style="rounded=0;whiteSpace=wrap;html=1;align=left;" parent="JdqZie4KPndp9T757h1O-439" vertex="1">
          <mxGeometry x="50" y="62" width="120" height="24" as="geometry" />
        </mxCell>
        <mxCell id="JdqZie4KPndp9T757h1O-444" value="key" style="rounded=0;whiteSpace=wrap;html=1;align=left;" parent="JdqZie4KPndp9T757h1O-439" vertex="1">
          <mxGeometry y="62" width="50" height="24" as="geometry" />
        </mxCell>
        <mxCell id="JdqZie4KPndp9T757h1O-445" value="" style="ellipse;whiteSpace=wrap;html=1;aspect=fixed;rounded=1;shadow=0;sketch=0;fillStyle=auto;strokeColor=#7EA6E0;fontSize=9;fillColor=#dae8fc;noLabel=1;" parent="JdqZie4KPndp9T757h1O-412" vertex="1">
          <mxGeometry x="577" y="313" width="11" height="11" as="geometry" />
        </mxCell>
        <mxCell id="JdqZie4KPndp9T757h1O-446" style="edgeStyle=orthogonalEdgeStyle;rounded=1;orthogonalLoop=1;jettySize=auto;html=1;entryX=0;entryY=0.75;entryDx=0;entryDy=0;fontColor=#000000;" parent="JdqZie4KPndp9T757h1O-412" source="JdqZie4KPndp9T757h1O-418" target="JdqZie4KPndp9T757h1O-438" edge="1">
          <mxGeometry relative="1" as="geometry">
            <Array as="points">
              <mxPoint x="430" y="319" />
              <mxPoint x="430" y="370" />
              <mxPoint x="583" y="370" />
              <mxPoint x="583" y="324" />
            </Array>
          </mxGeometry>
        </mxCell>
        <mxCell id="JdqZie4KPndp9T757h1O-463" style="edgeStyle=orthogonalEdgeStyle;rounded=1;sketch=0;jumpStyle=gap;orthogonalLoop=1;jettySize=auto;html=1;strokeColor=default;fontSize=9;fontColor=none;endArrow=classic;endFill=1;" parent="1" source="JdqZie4KPndp9T757h1O-455" edge="1">
          <mxGeometry relative="1" as="geometry">
            <mxPoint x="770" y="240" as="targetPoint" />
          </mxGeometry>
        </mxCell>
      </root>
    </mxGraphModel>
  </diagram>
</mxfile>
